<mxfile host="app.diagrams.net" agent="Mozilla/5.0 (Windows NT 10.0; Win64; x64; rv:137.0) Gecko/20100101 Firefox/137.0" version="26.1.0">
  <diagram name="Page-1" id="OgwOBg-F241lrxL37-Ub">
    <mxGraphModel dx="2465" dy="2032" grid="1" gridSize="10" guides="1" tooltips="1" connect="1" arrows="1" fold="1" page="1" pageScale="1" pageWidth="850" pageHeight="1100" math="0" shadow="0">
      <root>
        <mxCell id="0" />
        <mxCell id="1" parent="0" />
        <UserObject label="" plantUmlData="{&#xa;  &quot;data&quot;: &quot;@startuml\n&#39; Domain Model\n\nclass Recipe {\n  - title: String\n  - ingredients: List&lt;String&gt;\n  - instructions: String\n  - rating: Double\n}\n\nclass RecipeCollection {\n  - name: String\n  - description: String\n}\n\nclass Feedback {\n  - rating: Double\n  - comment: String\n  - date: Date\n}\n\nclass Report {\n  - generatedOn: Date\n  - content: String\n}\n\nclass User {\n  - username: String\n  - email: String\n}\n\nclass RecipeCreator {\n}\n\nclass RecipeOwner {\n}\n\nclass SystemOwner {\n}\n\nclass SystemAdministrator {\n}\n\nclass AIRecipeAssistant {\n}\n\nclass DatabaseManager {\n}\n\nclass ReportGenerator {\n}\n\nclass QualityControlTeam {\n}\n\nclass EndUser {\n}\n\nclass SearchEngine {\n}\n\nclass Recipient {\n}\n\nclass RecipeContributor {\n}\n\n&#39; Relationships\nUser &lt;|-- RecipeCreator\nUser &lt;|-- RecipeOwner\nUser &lt;|-- SystemOwner\nUser &lt;|-- SystemAdministrator\nUser &lt;|-- EndUser\nUser &lt;|-- RecipeContributor\nUser &lt;|-- ReportGenerator\nUser &lt;|-- DatabaseManager\nUser &lt;|-- QualityControlTeam\nUser &lt;|-- AIRecipeAssistant\nUser &lt;|-- Recipient\n\nRecipe \&quot;1\&quot; -- \&quot;*\&quot; Feedback\nRecipeCreator \&quot;1\&quot; -- \&quot;*\&quot; Recipe\nRecipeOwner \&quot;1\&quot; -- \&quot;*\&quot; Recipe\nRecipeCreator \&quot;1\&quot; -- \&quot;*\&quot; RecipeCollection\nRecipeCollection \&quot;*\&quot; -- \&quot;*\&quot; Recipe\nRecipe \&quot;1\&quot; -- \&quot;*\&quot; Report\nSearchEngine \&quot;1\&quot; ..&gt; \&quot;*\&quot; Recipe : searches\n@enduml\n&quot;,&#xa;  &quot;format&quot;: &quot;svg&quot;&#xa;}" id="JcS2n8uUrBxWs3ZotUIm-1">
          <mxCell style="shape=image;noLabel=1;verticalAlign=top;aspect=fixed;imageAspect=0;image=data:image/svg+xml,PHN2ZyB4bWxucz0iaHR0cDovL3d3dy53My5vcmcvMjAwMC9zdmciIHhtbG5zOnhsaW5rPSJodHRwOi8vd3d3LnczLm9yZy8xOTk5L3hsaW5rIiBjb250ZW50U3R5bGVUeXBlPSJ0ZXh0L2NzcyIgZGF0YS1kaWFncmFtLXR5cGU9IkNMQVNTIiBoZWlnaHQ9IjcyM3B4IiBwcmVzZXJ2ZUFzcGVjdFJhdGlvPSJub25lIiBzdHlsZT0id2lkdGg6MTc4M3B4O2hlaWdodDo3MjNweDtiYWNrZ3JvdW5kOiNGRkZGRkY7IiB2ZXJzaW9uPSIxLjEiIHZpZXdCb3g9IjAgMCAxNzgzIDcyMyIgd2lkdGg9IjE3ODNweCIgem9vbUFuZFBhbj0ibWFnbmlmeSI+PGRlZnMvPjxnPjwhLS1jbGFzcyBSZWNpcGUtLT48ZyBjbGFzcz0iZW50aXR5IiBkYXRhLWVudGl0eT0iUmVjaXBlIiBkYXRhLXNvdXJjZS1saW5lPSIzIiBkYXRhLXVpZD0iZW50MDAwMiIgaWQ9ImVudGl0eV9SZWNpcGUiPjxyZWN0IGZpbGw9IiNGMUYxRjEiIGhlaWdodD0iMTA3LjkzNzUiIHJ4PSIyLjUiIHJ5PSIyLjUiIHN0eWxlPSJzdHJva2U6IzE4MTgxODtzdHJva2Utd2lkdGg6MC41OyIgd2lkdGg9IjIwMSIgeD0iMTM3LjExIiB5PSI0NTUiLz48ZWxsaXBzZSBjeD0iMjEyLjM2IiBjeT0iNDcxIiBmaWxsPSIjQUREMUIyIiByeD0iMTEiIHJ5PSIxMSIgc3R5bGU9InN0cm9rZTojMTgxODE4O3N0cm9rZS13aWR0aDoxOyIvPjxwYXRoIGQ9Ik0yMDkuOTg1LDQ3NS4yNSBMMjA5Ljk4NSw0NzcgTDIxNC45MjI1LDQ3NyBMMjE0LjkyMjUsNDc1LjI1IEwyMDkuOTg1LDQ3NS4yNSBaIE0yMTAuNjcyNSw0NzUuOTM3NSBRMjEwLjY3MjUsNDc1LjkzNzUgMjEwLjY3MjUsNDY2Ljc1IEwyMDguOTIyNSw0NjYuNzUgUTIwOC45MjI1LDQ2Ni43NSAyMDguOTIyNSw0NzUuOTM3NSBMMjEwLjY3MjUsNDc1LjkzNzUgWiBNMjE0LjIzNSw0NzUuOTM3NSBMMjE1Ljk4NSw0NzUuOTM3NSBRMjE1Ljk4NSw0NzUuOTM3NSAyMTUuOTg1LDQ3My4xMjUgTDIxNC4yMzUsNDczLjEyNSBRMjE0LjIzNSw0NzMuMTI1IDIxNC4yMzUsNDc1LjkzNzUgWiBNMjE0LjIzNSw0NjYuNzUgUTIxNC4yMzUsNDY2Ljc1IDIxNC4yMzUsNDY5LjU2MjUgTDIxNS45ODUsNDY5LjU2MjUgUTIxNS45ODUsNDY5LjU2MjUgMjE1Ljk4NSw0NjYuNzUgTDIxNC4yMzUsNDY2Ljc1IFogTTIwOS45ODUsNDY3LjQzNzUgTDIxNC45MjI1LDQ2Ny40Mzc1IEwyMTQuOTIyNSw0NjUuNjg3NSBMMjA5Ljk4NSw0NjUuNjg3NSBMMjA5Ljk4NSw0NjcuNDM3NSBaICIgZmlsbD0iIzAwMDAwMCIvPjx0ZXh0IGZpbGw9IiMwMDAwMDAiIGZvbnQtZmFtaWx5PSJzYW5zLXNlcmlmIiBmb250LXNpemU9IjE0IiBsZW5ndGhBZGp1c3Q9InNwYWNpbmciIHRleHRMZW5ndGg9IjQyIiB4PSIyMzIuODYiIHk9IjQ3Ni43NDIyIj5SZWNpcGU8L3RleHQ+PGxpbmUgc3R5bGU9InN0cm9rZTojMTgxODE4O3N0cm9rZS13aWR0aDowLjU7IiB4MT0iMTM4LjExIiB4Mj0iMzM3LjExIiB5MT0iNDg3IiB5Mj0iNDg3Ii8+PHJlY3QgZmlsbD0ibm9uZSIgaGVpZ2h0PSI2IiBzdHlsZT0ic3Ryb2tlOiNDODI5MzA7c3Ryb2tlLXdpZHRoOjE7IiB3aWR0aD0iNiIgeD0iMTQ1LjExIiB5PSI0OTYuOTkyMiIvPjx0ZXh0IGZpbGw9IiMwMDAwMDAiIGZvbnQtZmFtaWx5PSJzYW5zLXNlcmlmIiBmb250LXNpemU9IjE0IiBsZW5ndGhBZGp1c3Q9InNwYWNpbmciIHRleHRMZW5ndGg9IjkxIiB4PSIxNTcuMTEiIHk9IjUwNC4yMzQ0Ij50aXRsZTogU3RyaW5nPC90ZXh0PjxyZWN0IGZpbGw9Im5vbmUiIGhlaWdodD0iNiIgc3R5bGU9InN0cm9rZTojQzgyOTMwO3N0cm9rZS13aWR0aDoxOyIgd2lkdGg9IjYiIHg9IjE0NS4xMSIgeT0iNTExLjk3NjYiLz48dGV4dCBmaWxsPSIjMDAwMDAwIiBmb250LWZhbWlseT0ic2Fucy1zZXJpZiIgZm9udC1zaXplPSIxNCIgbGVuZ3RoQWRqdXN0PSJzcGFjaW5nIiB0ZXh0TGVuZ3RoPSIxNzUiIHg9IjE1Ny4xMSIgeT0iNTE5LjIxODgiPmluZ3JlZGllbnRzOiBMaXN0Jmx0O1N0cmluZyZndDs8L3RleHQ+PHJlY3QgZmlsbD0ibm9uZSIgaGVpZ2h0PSI2IiBzdHlsZT0ic3Ryb2tlOiNDODI5MzA7c3Ryb2tlLXdpZHRoOjE7IiB3aWR0aD0iNiIgeD0iMTQ1LjExIiB5PSI1MjYuOTYwOSIvPjx0ZXh0IGZpbGw9IiMwMDAwMDAiIGZvbnQtZmFtaWx5PSJzYW5zLXNlcmlmIiBmb250LXNpemU9IjE0IiBsZW5ndGhBZGp1c3Q9InNwYWNpbmciIHRleHRMZW5ndGg9IjE0MCIgeD0iMTU3LjExIiB5PSI1MzQuMjAzMSI+aW5zdHJ1Y3Rpb25zOiBTdHJpbmc8L3RleHQ+PHJlY3QgZmlsbD0ibm9uZSIgaGVpZ2h0PSI2IiBzdHlsZT0ic3Ryb2tlOiNDODI5MzA7c3Ryb2tlLXdpZHRoOjE7IiB3aWR0aD0iNiIgeD0iMTQ1LjExIiB5PSI1NDEuOTQ1MyIvPjx0ZXh0IGZpbGw9IiMwMDAwMDAiIGZvbnQtZmFtaWx5PSJzYW5zLXNlcmlmIiBmb250LXNpemU9IjE0IiBsZW5ndGhBZGp1c3Q9InNwYWNpbmciIHRleHRMZW5ndGg9Ijk4IiB4PSIxNTcuMTEiIHk9IjU0OS4xODc1Ij5yYXRpbmc6IERvdWJsZTwvdGV4dD48bGluZSBzdHlsZT0ic3Ryb2tlOiMxODE4MTg7c3Ryb2tlLXdpZHRoOjAuNTsiIHgxPSIxMzguMTEiIHgyPSIzMzcuMTEiIHkxPSI1NTQuOTM3NSIgeTI9IjU1NC45Mzc1Ii8+PC9nPjwhLS1jbGFzcyBSZWNpcGVDb2xsZWN0aW9uLS0+PGcgY2xhc3M9ImVudGl0eSIgZGF0YS1lbnRpdHk9IlJlY2lwZUNvbGxlY3Rpb24iIGRhdGEtc291cmNlLWxpbmU9IjEwIiBkYXRhLXVpZD0iZW50MDAwMyIgaWQ9ImVudGl0eV9SZWNpcGVDb2xsZWN0aW9uIj48cmVjdCBmaWxsPSIjRjFGMUYxIiBoZWlnaHQ9Ijc3Ljk2ODgiIHJ4PSIyLjUiIHJ5PSIyLjUiIHN0eWxlPSJzdHJva2U6IzE4MTgxODtzdHJva2Utd2lkdGg6MC41OyIgd2lkdGg9IjE1OSIgeD0iNTkuMTEiIHk9IjMwMiIvPjxlbGxpcHNlIGN4PSI4MC44NiIgY3k9IjMxOCIgZmlsbD0iI0FERDFCMiIgcng9IjExIiByeT0iMTEiIHN0eWxlPSJzdHJva2U6IzE4MTgxODtzdHJva2Utd2lkdGg6MTsiLz48cGF0aCBkPSJNNzguNDg1LDMyMi4yNSBMNzguNDg1LDMyNCBMODMuNDIyNSwzMjQgTDgzLjQyMjUsMzIyLjI1IEw3OC40ODUsMzIyLjI1IFogTTc5LjE3MjUsMzIyLjkzNzUgUTc5LjE3MjUsMzIyLjkzNzUgNzkuMTcyNSwzMTMuNzUgTDc3LjQyMjUsMzEzLjc1IFE3Ny40MjI1LDMxMy43NSA3Ny40MjI1LDMyMi45Mzc1IEw3OS4xNzI1LDMyMi45Mzc1IFogTTgyLjczNSwzMjIuOTM3NSBMODQuNDg1LDMyMi45Mzc1IFE4NC40ODUsMzIyLjkzNzUgODQuNDg1LDMyMC4xMjUgTDgyLjczNSwzMjAuMTI1IFE4Mi43MzUsMzIwLjEyNSA4Mi43MzUsMzIyLjkzNzUgWiBNODIuNzM1LDMxMy43NSBRODIuNzM1LDMxMy43NSA4Mi43MzUsMzE2LjU2MjUgTDg0LjQ4NSwzMTYuNTYyNSBRODQuNDg1LDMxNi41NjI1IDg0LjQ4NSwzMTMuNzUgTDgyLjczNSwzMTMuNzUgWiBNNzguNDg1LDMxNC40Mzc1IEw4My40MjI1LDMxNC40Mzc1IEw4My40MjI1LDMxMi42ODc1IEw3OC40ODUsMzEyLjY4NzUgTDc4LjQ4NSwzMTQuNDM3NSBaICIgZmlsbD0iIzAwMDAwMCIvPjx0ZXh0IGZpbGw9IiMwMDAwMDAiIGZvbnQtZmFtaWx5PSJzYW5zLXNlcmlmIiBmb250LXNpemU9IjE0IiBsZW5ndGhBZGp1c3Q9InNwYWNpbmciIHRleHRMZW5ndGg9IjExMiIgeD0iOTYuMzYiIHk9IjMyMy43NDIyIj5SZWNpcGVDb2xsZWN0aW9uPC90ZXh0PjxsaW5lIHN0eWxlPSJzdHJva2U6IzE4MTgxODtzdHJva2Utd2lkdGg6MC41OyIgeDE9IjYwLjExIiB4Mj0iMjE3LjExIiB5MT0iMzM0IiB5Mj0iMzM0Ii8+PHJlY3QgZmlsbD0ibm9uZSIgaGVpZ2h0PSI2IiBzdHlsZT0ic3Ryb2tlOiNDODI5MzA7c3Ryb2tlLXdpZHRoOjE7IiB3aWR0aD0iNiIgeD0iNjcuMTEiIHk9IjM0My45OTIyIi8+PHRleHQgZmlsbD0iIzAwMDAwMCIgZm9udC1mYW1pbHk9InNhbnMtc2VyaWYiIGZvbnQtc2l6ZT0iMTQiIGxlbmd0aEFkanVzdD0ic3BhY2luZyIgdGV4dExlbmd0aD0iODQiIHg9Ijc5LjExIiB5PSIzNTEuMjM0NCI+bmFtZTogU3RyaW5nPC90ZXh0PjxyZWN0IGZpbGw9Im5vbmUiIGhlaWdodD0iNiIgc3R5bGU9InN0cm9rZTojQzgyOTMwO3N0cm9rZS13aWR0aDoxOyIgd2lkdGg9IjYiIHg9IjY3LjExIiB5PSIzNTguOTc2NiIvPjx0ZXh0IGZpbGw9IiMwMDAwMDAiIGZvbnQtZmFtaWx5PSJzYW5zLXNlcmlmIiBmb250LXNpemU9IjE0IiBsZW5ndGhBZGp1c3Q9InNwYWNpbmciIHRleHRMZW5ndGg9IjEzMyIgeD0iNzkuMTEiIHk9IjM2Ni4yMTg4Ij5kZXNjcmlwdGlvbjogU3RyaW5nPC90ZXh0PjxsaW5lIHN0eWxlPSJzdHJva2U6IzE4MTgxODtzdHJva2Utd2lkdGg6MC41OyIgeDE9IjYwLjExIiB4Mj0iMjE3LjExIiB5MT0iMzcxLjk2ODgiIHkyPSIzNzEuOTY4OCIvPjwvZz48IS0tY2xhc3MgRmVlZGJhY2stLT48ZyBjbGFzcz0iZW50aXR5IiBkYXRhLWVudGl0eT0iRmVlZGJhY2siIGRhdGEtc291cmNlLWxpbmU9IjE1IiBkYXRhLXVpZD0iZW50MDAwNCIgaWQ9ImVudGl0eV9GZWVkYmFjayI+PHJlY3QgZmlsbD0iI0YxRjFGMSIgaGVpZ2h0PSI5Mi45NTMxIiByeD0iMi41IiByeT0iMi41IiBzdHlsZT0ic3Ryb2tlOiMxODE4MTg7c3Ryb2tlLXdpZHRoOjAuNTsiIHdpZHRoPSIxMzEiIHg9Ijg2LjExIiB5PSI2MjQiLz48ZWxsaXBzZSBjeD0iMTIwLjQ2IiBjeT0iNjQwIiBmaWxsPSIjQUREMUIyIiByeD0iMTEiIHJ5PSIxMSIgc3R5bGU9InN0cm9rZTojMTgxODE4O3N0cm9rZS13aWR0aDoxOyIvPjxwYXRoIGQ9Ik0xMTguMDg1LDY0NC4yNSBMMTE4LjA4NSw2NDYgTDEyMy4wMjI1LDY0NiBMMTIzLjAyMjUsNjQ0LjI1IEwxMTguMDg1LDY0NC4yNSBaIE0xMTguNzcyNSw2NDQuOTM3NSBRMTE4Ljc3MjUsNjQ0LjkzNzUgMTE4Ljc3MjUsNjM1Ljc1IEwxMTcuMDIyNSw2MzUuNzUgUTExNy4wMjI1LDYzNS43NSAxMTcuMDIyNSw2NDQuOTM3NSBMMTE4Ljc3MjUsNjQ0LjkzNzUgWiBNMTIyLjMzNSw2NDQuOTM3NSBMMTI0LjA4NSw2NDQuOTM3NSBRMTI0LjA4NSw2NDQuOTM3NSAxMjQuMDg1LDY0Mi4xMjUgTDEyMi4zMzUsNjQyLjEyNSBRMTIyLjMzNSw2NDIuMTI1IDEyMi4zMzUsNjQ0LjkzNzUgWiBNMTIyLjMzNSw2MzUuNzUgUTEyMi4zMzUsNjM1Ljc1IDEyMi4zMzUsNjM4LjU2MjUgTDEyNC4wODUsNjM4LjU2MjUgUTEyNC4wODUsNjM4LjU2MjUgMTI0LjA4NSw2MzUuNzUgTDEyMi4zMzUsNjM1Ljc1IFogTTExOC4wODUsNjM2LjQzNzUgTDEyMy4wMjI1LDYzNi40Mzc1IEwxMjMuMDIyNSw2MzQuNjg3NSBMMTE4LjA4NSw2MzQuNjg3NSBMMTE4LjA4NSw2MzYuNDM3NSBaICIgZmlsbD0iIzAwMDAwMCIvPjx0ZXh0IGZpbGw9IiMwMDAwMDAiIGZvbnQtZmFtaWx5PSJzYW5zLXNlcmlmIiBmb250LXNpemU9IjE0IiBsZW5ndGhBZGp1c3Q9InNwYWNpbmciIHRleHRMZW5ndGg9IjU2IiB4PSIxMzguNzYiIHk9IjY0NS43NDIyIj5GZWVkYmFjazwvdGV4dD48bGluZSBzdHlsZT0ic3Ryb2tlOiMxODE4MTg7c3Ryb2tlLXdpZHRoOjAuNTsiIHgxPSI4Ny4xMSIgeDI9IjIxNi4xMSIgeTE9IjY1NiIgeTI9IjY1NiIvPjxyZWN0IGZpbGw9Im5vbmUiIGhlaWdodD0iNiIgc3R5bGU9InN0cm9rZTojQzgyOTMwO3N0cm9rZS13aWR0aDoxOyIgd2lkdGg9IjYiIHg9Ijk0LjExIiB5PSI2NjUuOTkyMiIvPjx0ZXh0IGZpbGw9IiMwMDAwMDAiIGZvbnQtZmFtaWx5PSJzYW5zLXNlcmlmIiBmb250LXNpemU9IjE0IiBsZW5ndGhBZGp1c3Q9InNwYWNpbmciIHRleHRMZW5ndGg9Ijk4IiB4PSIxMDYuMTEiIHk9IjY3My4yMzQ0Ij5yYXRpbmc6IERvdWJsZTwvdGV4dD48cmVjdCBmaWxsPSJub25lIiBoZWlnaHQ9IjYiIHN0eWxlPSJzdHJva2U6I0M4MjkzMDtzdHJva2Utd2lkdGg6MTsiIHdpZHRoPSI2IiB4PSI5NC4xMSIgeT0iNjgwLjk3NjYiLz48dGV4dCBmaWxsPSIjMDAwMDAwIiBmb250LWZhbWlseT0ic2Fucy1zZXJpZiIgZm9udC1zaXplPSIxNCIgbGVuZ3RoQWRqdXN0PSJzcGFjaW5nIiB0ZXh0TGVuZ3RoPSIxMDUiIHg9IjEwNi4xMSIgeT0iNjg4LjIxODgiPmNvbW1lbnQ6IFN0cmluZzwvdGV4dD48cmVjdCBmaWxsPSJub25lIiBoZWlnaHQ9IjYiIHN0eWxlPSJzdHJva2U6I0M4MjkzMDtzdHJva2Utd2lkdGg6MTsiIHdpZHRoPSI2IiB4PSI5NC4xMSIgeT0iNjk1Ljk2MDkiLz48dGV4dCBmaWxsPSIjMDAwMDAwIiBmb250LWZhbWlseT0ic2Fucy1zZXJpZiIgZm9udC1zaXplPSIxNCIgbGVuZ3RoQWRqdXN0PSJzcGFjaW5nIiB0ZXh0TGVuZ3RoPSI3MCIgeD0iMTA2LjExIiB5PSI3MDMuMjAzMSI+ZGF0ZTogRGF0ZTwvdGV4dD48bGluZSBzdHlsZT0ic3Ryb2tlOiMxODE4MTg7c3Ryb2tlLXdpZHRoOjAuNTsiIHgxPSI4Ny4xMSIgeDI9IjIxNi4xMSIgeTE9IjcwOC45NTMxIiB5Mj0iNzA4Ljk1MzEiLz48L2c+PCEtLWNsYXNzIFJlcG9ydC0tPjxnIGNsYXNzPSJlbnRpdHkiIGRhdGEtZW50aXR5PSJSZXBvcnQiIGRhdGEtc291cmNlLWxpbmU9IjIxIiBkYXRhLXVpZD0iZW50MDAwNSIgaWQ9ImVudGl0eV9SZXBvcnQiPjxyZWN0IGZpbGw9IiNGMUYxRjEiIGhlaWdodD0iNzcuOTY4OCIgcng9IjIuNSIgcnk9IjIuNSIgc3R5bGU9InN0cm9rZTojMTgxODE4O3N0cm9rZS13aWR0aDowLjU7IiB3aWR0aD0iMTQ1IiB4PSIyNTIuMTEiIHk9IjYzMS41Ii8+PGVsbGlwc2UgY3g9IjI5OS4zNiIgY3k9IjY0Ny41IiBmaWxsPSIjQUREMUIyIiByeD0iMTEiIHJ5PSIxMSIgc3R5bGU9InN0cm9rZTojMTgxODE4O3N0cm9rZS13aWR0aDoxOyIvPjxwYXRoIGQ9Ik0yOTYuOTg1LDY1MS43NSBMMjk2Ljk4NSw2NTMuNSBMMzAxLjkyMjUsNjUzLjUgTDMwMS45MjI1LDY1MS43NSBMMjk2Ljk4NSw2NTEuNzUgWiBNMjk3LjY3MjUsNjUyLjQzNzUgUTI5Ny42NzI1LDY1Mi40Mzc1IDI5Ny42NzI1LDY0My4yNSBMMjk1LjkyMjUsNjQzLjI1IFEyOTUuOTIyNSw2NDMuMjUgMjk1LjkyMjUsNjUyLjQzNzUgTDI5Ny42NzI1LDY1Mi40Mzc1IFogTTMwMS4yMzUsNjUyLjQzNzUgTDMwMi45ODUsNjUyLjQzNzUgUTMwMi45ODUsNjUyLjQzNzUgMzAyLjk4NSw2NDkuNjI1IEwzMDEuMjM1LDY0OS42MjUgUTMwMS4yMzUsNjQ5LjYyNSAzMDEuMjM1LDY1Mi40Mzc1IFogTTMwMS4yMzUsNjQzLjI1IFEzMDEuMjM1LDY0My4yNSAzMDEuMjM1LDY0Ni4wNjI1IEwzMDIuOTg1LDY0Ni4wNjI1IFEzMDIuOTg1LDY0Ni4wNjI1IDMwMi45ODUsNjQzLjI1IEwzMDEuMjM1LDY0My4yNSBaIE0yOTYuOTg1LDY0My45Mzc1IEwzMDEuOTIyNSw2NDMuOTM3NSBMMzAxLjkyMjUsNjQyLjE4NzUgTDI5Ni45ODUsNjQyLjE4NzUgTDI5Ni45ODUsNjQzLjkzNzUgWiAiIGZpbGw9IiMwMDAwMDAiLz48dGV4dCBmaWxsPSIjMDAwMDAwIiBmb250LWZhbWlseT0ic2Fucy1zZXJpZiIgZm9udC1zaXplPSIxNCIgbGVuZ3RoQWRqdXN0PSJzcGFjaW5nIiB0ZXh0TGVuZ3RoPSI0MiIgeD0iMzE5Ljg2IiB5PSI2NTMuMjQyMiI+UmVwb3J0PC90ZXh0PjxsaW5lIHN0eWxlPSJzdHJva2U6IzE4MTgxODtzdHJva2Utd2lkdGg6MC41OyIgeDE9IjI1My4xMSIgeDI9IjM5Ni4xMSIgeTE9IjY2My41IiB5Mj0iNjYzLjUiLz48cmVjdCBmaWxsPSJub25lIiBoZWlnaHQ9IjYiIHN0eWxlPSJzdHJva2U6I0M4MjkzMDtzdHJva2Utd2lkdGg6MTsiIHdpZHRoPSI2IiB4PSIyNjAuMTEiIHk9IjY3My40OTIyIi8+PHRleHQgZmlsbD0iIzAwMDAwMCIgZm9udC1mYW1pbHk9InNhbnMtc2VyaWYiIGZvbnQtc2l6ZT0iMTQiIGxlbmd0aEFkanVzdD0ic3BhY2luZyIgdGV4dExlbmd0aD0iMTE5IiB4PSIyNzIuMTEiIHk9IjY4MC43MzQ0Ij5nZW5lcmF0ZWRPbjogRGF0ZTwvdGV4dD48cmVjdCBmaWxsPSJub25lIiBoZWlnaHQ9IjYiIHN0eWxlPSJzdHJva2U6I0M4MjkzMDtzdHJva2Utd2lkdGg6MTsiIHdpZHRoPSI2IiB4PSIyNjAuMTEiIHk9IjY4OC40NzY2Ii8+PHRleHQgZmlsbD0iIzAwMDAwMCIgZm9udC1mYW1pbHk9InNhbnMtc2VyaWYiIGZvbnQtc2l6ZT0iMTQiIGxlbmd0aEFkanVzdD0ic3BhY2luZyIgdGV4dExlbmd0aD0iMTA1IiB4PSIyNzIuMTEiIHk9IjY5NS43MTg4Ij5jb250ZW50OiBTdHJpbmc8L3RleHQ+PGxpbmUgc3R5bGU9InN0cm9rZTojMTgxODE4O3N0cm9rZS13aWR0aDowLjU7IiB4MT0iMjUzLjExIiB4Mj0iMzk2LjExIiB5MT0iNzAxLjQ2ODgiIHkyPSI3MDEuNDY4OCIvPjwvZz48IS0tY2xhc3MgVXNlci0tPjxnIGNsYXNzPSJlbnRpdHkiIGRhdGEtZW50aXR5PSJVc2VyIiBkYXRhLXNvdXJjZS1saW5lPSIyNiIgZGF0YS11aWQ9ImVudDAwMDYiIGlkPSJlbnRpdHlfVXNlciI+PHJlY3QgZmlsbD0iI0YxRjFGMSIgaGVpZ2h0PSI3Ny45Njg4IiByeD0iMi41IiByeT0iMi41IiBzdHlsZT0ic3Ryb2tlOiMxODE4MTg7c3Ryb2tlLXdpZHRoOjAuNTsiIHdpZHRoPSIxMzgiIHg9Ijg0MC42MSIgeT0iNyIvPjxlbGxpcHNlIGN4PSI4OTEuMzYiIGN5PSIyMyIgZmlsbD0iI0FERDFCMiIgcng9IjExIiByeT0iMTEiIHN0eWxlPSJzdHJva2U6IzE4MTgxODtzdHJva2Utd2lkdGg6MTsiLz48cGF0aCBkPSJNODg4Ljk4NSwyNy4yNSBMODg4Ljk4NSwyOSBMODkzLjkyMjUsMjkgTDg5My45MjI1LDI3LjI1IEw4ODguOTg1LDI3LjI1IFogTTg4OS42NzI1LDI3LjkzNzUgUTg4OS42NzI1LDI3LjkzNzUgODg5LjY3MjUsMTguNzUgTDg4Ny45MjI1LDE4Ljc1IFE4ODcuOTIyNSwxOC43NSA4ODcuOTIyNSwyNy45Mzc1IEw4ODkuNjcyNSwyNy45Mzc1IFogTTg5My4yMzUsMjcuOTM3NSBMODk0Ljk4NSwyNy45Mzc1IFE4OTQuOTg1LDI3LjkzNzUgODk0Ljk4NSwyNS4xMjUgTDg5My4yMzUsMjUuMTI1IFE4OTMuMjM1LDI1LjEyNSA4OTMuMjM1LDI3LjkzNzUgWiBNODkzLjIzNSwxOC43NSBRODkzLjIzNSwxOC43NSA4OTMuMjM1LDIxLjU2MjUgTDg5NC45ODUsMjEuNTYyNSBRODk0Ljk4NSwyMS41NjI1IDg5NC45ODUsMTguNzUgTDg5My4yMzUsMTguNzUgWiBNODg4Ljk4NSwxOS40Mzc1IEw4OTMuOTIyNSwxOS40Mzc1IEw4OTMuOTIyNSwxNy42ODc1IEw4ODguOTg1LDE3LjY4NzUgTDg4OC45ODUsMTkuNDM3NSBaICIgZmlsbD0iIzAwMDAwMCIvPjx0ZXh0IGZpbGw9IiMwMDAwMDAiIGZvbnQtZmFtaWx5PSJzYW5zLXNlcmlmIiBmb250LXNpemU9IjE0IiBsZW5ndGhBZGp1c3Q9InNwYWNpbmciIHRleHRMZW5ndGg9IjI4IiB4PSI5MTEuODYiIHk9IjI4Ljc0MjIiPlVzZXI8L3RleHQ+PGxpbmUgc3R5bGU9InN0cm9rZTojMTgxODE4O3N0cm9rZS13aWR0aDowLjU7IiB4MT0iODQxLjYxIiB4Mj0iOTc3LjYxIiB5MT0iMzkiIHkyPSIzOSIvPjxyZWN0IGZpbGw9Im5vbmUiIGhlaWdodD0iNiIgc3R5bGU9InN0cm9rZTojQzgyOTMwO3N0cm9rZS13aWR0aDoxOyIgd2lkdGg9IjYiIHg9Ijg0OC42MSIgeT0iNDguOTkyMiIvPjx0ZXh0IGZpbGw9IiMwMDAwMDAiIGZvbnQtZmFtaWx5PSJzYW5zLXNlcmlmIiBmb250LXNpemU9IjE0IiBsZW5ndGhBZGp1c3Q9InNwYWNpbmciIHRleHRMZW5ndGg9IjExMiIgeD0iODYwLjYxIiB5PSI1Ni4yMzQ0Ij51c2VybmFtZTogU3RyaW5nPC90ZXh0PjxyZWN0IGZpbGw9Im5vbmUiIGhlaWdodD0iNiIgc3R5bGU9InN0cm9rZTojQzgyOTMwO3N0cm9rZS13aWR0aDoxOyIgd2lkdGg9IjYiIHg9Ijg0OC42MSIgeT0iNjMuOTc2NiIvPjx0ZXh0IGZpbGw9IiMwMDAwMDAiIGZvbnQtZmFtaWx5PSJzYW5zLXNlcmlmIiBmb250LXNpemU9IjE0IiBsZW5ndGhBZGp1c3Q9InNwYWNpbmciIHRleHRMZW5ndGg9IjkxIiB4PSI4NjAuNjEiIHk9IjcxLjIxODgiPmVtYWlsOiBTdHJpbmc8L3RleHQ+PGxpbmUgc3R5bGU9InN0cm9rZTojMTgxODE4O3N0cm9rZS13aWR0aDowLjU7IiB4MT0iODQxLjYxIiB4Mj0iOTc3LjYxIiB5MT0iNzYuOTY4OCIgeTI9Ijc2Ljk2ODgiLz48L2c+PCEtLWNsYXNzIFJlY2lwZUNyZWF0b3ItLT48ZyBjbGFzcz0iZW50aXR5IiBkYXRhLWVudGl0eT0iUmVjaXBlQ3JlYXRvciIgZGF0YS1zb3VyY2UtbGluZT0iMzEiIGRhdGEtdWlkPSJlbnQwMDA3IiBpZD0iZW50aXR5X1JlY2lwZUNyZWF0b3IiPjxyZWN0IGZpbGw9IiNGMUYxRjEiIGhlaWdodD0iNDgiIHJ4PSIyLjUiIHJ5PSIyLjUiIHN0eWxlPSJzdHJva2U6IzE4MTgxODtzdHJva2Utd2lkdGg6MC41OyIgd2lkdGg9IjEyMyIgeD0iNzcuMTEiIHk9IjE0NiIvPjxlbGxpcHNlIGN4PSI5Mi4xMSIgY3k9IjE2MiIgZmlsbD0iI0FERDFCMiIgcng9IjExIiByeT0iMTEiIHN0eWxlPSJzdHJva2U6IzE4MTgxODtzdHJva2Utd2lkdGg6MTsiLz48cGF0aCBkPSJNODkuNzM1LDE2Ni4yNSBMODkuNzM1LDE2OCBMOTQuNjcyNSwxNjggTDk0LjY3MjUsMTY2LjI1IEw4OS43MzUsMTY2LjI1IFogTTkwLjQyMjUsMTY2LjkzNzUgUTkwLjQyMjUsMTY2LjkzNzUgOTAuNDIyNSwxNTcuNzUgTDg4LjY3MjUsMTU3Ljc1IFE4OC42NzI1LDE1Ny43NSA4OC42NzI1LDE2Ni45Mzc1IEw5MC40MjI1LDE2Ni45Mzc1IFogTTkzLjk4NSwxNjYuOTM3NSBMOTUuNzM1LDE2Ni45Mzc1IFE5NS43MzUsMTY2LjkzNzUgOTUuNzM1LDE2NC4xMjUgTDkzLjk4NSwxNjQuMTI1IFE5My45ODUsMTY0LjEyNSA5My45ODUsMTY2LjkzNzUgWiBNOTMuOTg1LDE1Ny43NSBROTMuOTg1LDE1Ny43NSA5My45ODUsMTYwLjU2MjUgTDk1LjczNSwxNjAuNTYyNSBROTUuNzM1LDE2MC41NjI1IDk1LjczNSwxNTcuNzUgTDkzLjk4NSwxNTcuNzUgWiBNODkuNzM1LDE1OC40Mzc1IEw5NC42NzI1LDE1OC40Mzc1IEw5NC42NzI1LDE1Ni42ODc1IEw4OS43MzUsMTU2LjY4NzUgTDg5LjczNSwxNTguNDM3NSBaICIgZmlsbD0iIzAwMDAwMCIvPjx0ZXh0IGZpbGw9IiMwMDAwMDAiIGZvbnQtZmFtaWx5PSJzYW5zLXNlcmlmIiBmb250LXNpemU9IjE0IiBsZW5ndGhBZGp1c3Q9InNwYWNpbmciIHRleHRMZW5ndGg9IjkxIiB4PSIxMDYuMTEiIHk9IjE2Ny43NDIyIj5SZWNpcGVDcmVhdG9yPC90ZXh0PjxsaW5lIHN0eWxlPSJzdHJva2U6IzE4MTgxODtzdHJva2Utd2lkdGg6MC41OyIgeDE9Ijc4LjExIiB4Mj0iMTk5LjExIiB5MT0iMTc4IiB5Mj0iMTc4Ii8+PGxpbmUgc3R5bGU9InN0cm9rZTojMTgxODE4O3N0cm9rZS13aWR0aDowLjU7IiB4MT0iNzguMTEiIHgyPSIxOTkuMTEiIHkxPSIxODYiIHkyPSIxODYiLz48L2c+PCEtLWNsYXNzIFJlY2lwZU93bmVyLS0+PGcgY2xhc3M9ImVudGl0eSIgZGF0YS1lbnRpdHk9IlJlY2lwZU93bmVyIiBkYXRhLXNvdXJjZS1saW5lPSIzNCIgZGF0YS11aWQ9ImVudDAwMDgiIGlkPSJlbnRpdHlfUmVjaXBlT3duZXIiPjxyZWN0IGZpbGw9IiNGMUYxRjEiIGhlaWdodD0iNDgiIHJ4PSIyLjUiIHJ5PSIyLjUiIHN0eWxlPSJzdHJva2U6IzE4MTgxODtzdHJva2Utd2lkdGg6MC41OyIgd2lkdGg9IjEwOSIgeD0iMjEyLjExIiB5PSIyMjQiLz48ZWxsaXBzZSBjeD0iMjI3LjExIiBjeT0iMjQwIiBmaWxsPSIjQUREMUIyIiByeD0iMTEiIHJ5PSIxMSIgc3R5bGU9InN0cm9rZTojMTgxODE4O3N0cm9rZS13aWR0aDoxOyIvPjxwYXRoIGQ9Ik0yMjQuNzM1LDI0NC4yNSBMMjI0LjczNSwyNDYgTDIyOS42NzI1LDI0NiBMMjI5LjY3MjUsMjQ0LjI1IEwyMjQuNzM1LDI0NC4yNSBaIE0yMjUuNDIyNSwyNDQuOTM3NSBRMjI1LjQyMjUsMjQ0LjkzNzUgMjI1LjQyMjUsMjM1Ljc1IEwyMjMuNjcyNSwyMzUuNzUgUTIyMy42NzI1LDIzNS43NSAyMjMuNjcyNSwyNDQuOTM3NSBMMjI1LjQyMjUsMjQ0LjkzNzUgWiBNMjI4Ljk4NSwyNDQuOTM3NSBMMjMwLjczNSwyNDQuOTM3NSBRMjMwLjczNSwyNDQuOTM3NSAyMzAuNzM1LDI0Mi4xMjUgTDIyOC45ODUsMjQyLjEyNSBRMjI4Ljk4NSwyNDIuMTI1IDIyOC45ODUsMjQ0LjkzNzUgWiBNMjI4Ljk4NSwyMzUuNzUgUTIyOC45ODUsMjM1Ljc1IDIyOC45ODUsMjM4LjU2MjUgTDIzMC43MzUsMjM4LjU2MjUgUTIzMC43MzUsMjM4LjU2MjUgMjMwLjczNSwyMzUuNzUgTDIyOC45ODUsMjM1Ljc1IFogTTIyNC43MzUsMjM2LjQzNzUgTDIyOS42NzI1LDIzNi40Mzc1IEwyMjkuNjcyNSwyMzQuNjg3NSBMMjI0LjczNSwyMzQuNjg3NSBMMjI0LjczNSwyMzYuNDM3NSBaICIgZmlsbD0iIzAwMDAwMCIvPjx0ZXh0IGZpbGw9IiMwMDAwMDAiIGZvbnQtZmFtaWx5PSJzYW5zLXNlcmlmIiBmb250LXNpemU9IjE0IiBsZW5ndGhBZGp1c3Q9InNwYWNpbmciIHRleHRMZW5ndGg9Ijc3IiB4PSIyNDEuMTEiIHk9IjI0NS43NDIyIj5SZWNpcGVPd25lcjwvdGV4dD48bGluZSBzdHlsZT0ic3Ryb2tlOiMxODE4MTg7c3Ryb2tlLXdpZHRoOjAuNTsiIHgxPSIyMTMuMTEiIHgyPSIzMjAuMTEiIHkxPSIyNTYiIHkyPSIyNTYiLz48bGluZSBzdHlsZT0ic3Ryb2tlOiMxODE4MTg7c3Ryb2tlLXdpZHRoOjAuNTsiIHgxPSIyMTMuMTEiIHgyPSIzMjAuMTEiIHkxPSIyNjQiIHkyPSIyNjQiLz48L2c+PCEtLWNsYXNzIFN5c3RlbU93bmVyLS0+PGcgY2xhc3M9ImVudGl0eSIgZGF0YS1lbnRpdHk9IlN5c3RlbU93bmVyIiBkYXRhLXNvdXJjZS1saW5lPSIzNyIgZGF0YS11aWQ9ImVudDAwMDkiIGlkPSJlbnRpdHlfU3lzdGVtT3duZXIiPjxyZWN0IGZpbGw9IiNGMUYxRjEiIGhlaWdodD0iNDgiIHJ4PSIyLjUiIHJ5PSIyLjUiIHN0eWxlPSJzdHJva2U6IzE4MTgxODtzdHJva2Utd2lkdGg6MC41OyIgd2lkdGg9IjEwOSIgeD0iMzExLjExIiB5PSIxNDYiLz48ZWxsaXBzZSBjeD0iMzI2LjExIiBjeT0iMTYyIiBmaWxsPSIjQUREMUIyIiByeD0iMTEiIHJ5PSIxMSIgc3R5bGU9InN0cm9rZTojMTgxODE4O3N0cm9rZS13aWR0aDoxOyIvPjxwYXRoIGQ9Ik0zMjMuNzM1LDE2Ni4yNSBMMzIzLjczNSwxNjggTDMyOC42NzI1LDE2OCBMMzI4LjY3MjUsMTY2LjI1IEwzMjMuNzM1LDE2Ni4yNSBaIE0zMjQuNDIyNSwxNjYuOTM3NSBRMzI0LjQyMjUsMTY2LjkzNzUgMzI0LjQyMjUsMTU3Ljc1IEwzMjIuNjcyNSwxNTcuNzUgUTMyMi42NzI1LDE1Ny43NSAzMjIuNjcyNSwxNjYuOTM3NSBMMzI0LjQyMjUsMTY2LjkzNzUgWiBNMzI3Ljk4NSwxNjYuOTM3NSBMMzI5LjczNSwxNjYuOTM3NSBRMzI5LjczNSwxNjYuOTM3NSAzMjkuNzM1LDE2NC4xMjUgTDMyNy45ODUsMTY0LjEyNSBRMzI3Ljk4NSwxNjQuMTI1IDMyNy45ODUsMTY2LjkzNzUgWiBNMzI3Ljk4NSwxNTcuNzUgUTMyNy45ODUsMTU3Ljc1IDMyNy45ODUsMTYwLjU2MjUgTDMyOS43MzUsMTYwLjU2MjUgUTMyOS43MzUsMTYwLjU2MjUgMzI5LjczNSwxNTcuNzUgTDMyNy45ODUsMTU3Ljc1IFogTTMyMy43MzUsMTU4LjQzNzUgTDMyOC42NzI1LDE1OC40Mzc1IEwzMjguNjcyNSwxNTYuNjg3NSBMMzIzLjczNSwxNTYuNjg3NSBMMzIzLjczNSwxNTguNDM3NSBaICIgZmlsbD0iIzAwMDAwMCIvPjx0ZXh0IGZpbGw9IiMwMDAwMDAiIGZvbnQtZmFtaWx5PSJzYW5zLXNlcmlmIiBmb250LXNpemU9IjE0IiBsZW5ndGhBZGp1c3Q9InNwYWNpbmciIHRleHRMZW5ndGg9Ijc3IiB4PSIzNDAuMTEiIHk9IjE2Ny43NDIyIj5TeXN0ZW1Pd25lcjwvdGV4dD48bGluZSBzdHlsZT0ic3Ryb2tlOiMxODE4MTg7c3Ryb2tlLXdpZHRoOjAuNTsiIHgxPSIzMTIuMTEiIHgyPSI0MTkuMTEiIHkxPSIxNzgiIHkyPSIxNzgiLz48bGluZSBzdHlsZT0ic3Ryb2tlOiMxODE4MTg7c3Ryb2tlLXdpZHRoOjAuNTsiIHgxPSIzMTIuMTEiIHgyPSI0MTkuMTEiIHkxPSIxODYiIHkyPSIxODYiLz48L2c+PCEtLWNsYXNzIFN5c3RlbUFkbWluaXN0cmF0b3ItLT48ZyBjbGFzcz0iZW50aXR5IiBkYXRhLWVudGl0eT0iU3lzdGVtQWRtaW5pc3RyYXRvciIgZGF0YS1zb3VyY2UtbGluZT0iNDAiIGRhdGEtdWlkPSJlbnQwMDEwIiBpZD0iZW50aXR5X1N5c3RlbUFkbWluaXN0cmF0b3IiPjxyZWN0IGZpbGw9IiNGMUYxRjEiIGhlaWdodD0iNDgiIHJ4PSIyLjUiIHJ5PSIyLjUiIHN0eWxlPSJzdHJva2U6IzE4MTgxODtzdHJva2Utd2lkdGg6MC41OyIgd2lkdGg9IjE2NSIgeD0iNDU1LjExIiB5PSIxNDYiLz48ZWxsaXBzZSBjeD0iNDcwLjExIiBjeT0iMTYyIiBmaWxsPSIjQUREMUIyIiByeD0iMTEiIHJ5PSIxMSIgc3R5bGU9InN0cm9rZTojMTgxODE4O3N0cm9rZS13aWR0aDoxOyIvPjxwYXRoIGQ9Ik00NjcuNzM1LDE2Ni4yNSBMNDY3LjczNSwxNjggTDQ3Mi42NzI1LDE2OCBMNDcyLjY3MjUsMTY2LjI1IEw0NjcuNzM1LDE2Ni4yNSBaIE00NjguNDIyNSwxNjYuOTM3NSBRNDY4LjQyMjUsMTY2LjkzNzUgNDY4LjQyMjUsMTU3Ljc1IEw0NjYuNjcyNSwxNTcuNzUgUTQ2Ni42NzI1LDE1Ny43NSA0NjYuNjcyNSwxNjYuOTM3NSBMNDY4LjQyMjUsMTY2LjkzNzUgWiBNNDcxLjk4NSwxNjYuOTM3NSBMNDczLjczNSwxNjYuOTM3NSBRNDczLjczNSwxNjYuOTM3NSA0NzMuNzM1LDE2NC4xMjUgTDQ3MS45ODUsMTY0LjEyNSBRNDcxLjk4NSwxNjQuMTI1IDQ3MS45ODUsMTY2LjkzNzUgWiBNNDcxLjk4NSwxNTcuNzUgUTQ3MS45ODUsMTU3Ljc1IDQ3MS45ODUsMTYwLjU2MjUgTDQ3My43MzUsMTYwLjU2MjUgUTQ3My43MzUsMTYwLjU2MjUgNDczLjczNSwxNTcuNzUgTDQ3MS45ODUsMTU3Ljc1IFogTTQ2Ny43MzUsMTU4LjQzNzUgTDQ3Mi42NzI1LDE1OC40Mzc1IEw0NzIuNjcyNSwxNTYuNjg3NSBMNDY3LjczNSwxNTYuNjg3NSBMNDY3LjczNSwxNTguNDM3NSBaICIgZmlsbD0iIzAwMDAwMCIvPjx0ZXh0IGZpbGw9IiMwMDAwMDAiIGZvbnQtZmFtaWx5PSJzYW5zLXNlcmlmIiBmb250LXNpemU9IjE0IiBsZW5ndGhBZGp1c3Q9InNwYWNpbmciIHRleHRMZW5ndGg9IjEzMyIgeD0iNDg0LjExIiB5PSIxNjcuNzQyMiI+U3lzdGVtQWRtaW5pc3RyYXRvcjwvdGV4dD48bGluZSBzdHlsZT0ic3Ryb2tlOiMxODE4MTg7c3Ryb2tlLXdpZHRoOjAuNTsiIHgxPSI0NTYuMTEiIHgyPSI2MTkuMTEiIHkxPSIxNzgiIHkyPSIxNzgiLz48bGluZSBzdHlsZT0ic3Ryb2tlOiMxODE4MTg7c3Ryb2tlLXdpZHRoOjAuNTsiIHgxPSI0NTYuMTEiIHgyPSI2MTkuMTEiIHkxPSIxODYiIHkyPSIxODYiLz48L2c+PCEtLWNsYXNzIEFJUmVjaXBlQXNzaXN0YW50LS0+PGcgY2xhc3M9ImVudGl0eSIgZGF0YS1lbnRpdHk9IkFJUmVjaXBlQXNzaXN0YW50IiBkYXRhLXNvdXJjZS1saW5lPSI0MyIgZGF0YS11aWQ9ImVudDAwMTEiIGlkPSJlbnRpdHlfQUlSZWNpcGVBc3Npc3RhbnQiPjxyZWN0IGZpbGw9IiNGMUYxRjEiIGhlaWdodD0iNDgiIHJ4PSIyLjUiIHJ5PSIyLjUiIHN0eWxlPSJzdHJva2U6IzE4MTgxODtzdHJva2Utd2lkdGg6MC41OyIgd2lkdGg9IjE1MSIgeD0iNjU1LjExIiB5PSIxNDYiLz48ZWxsaXBzZSBjeD0iNjcwLjExIiBjeT0iMTYyIiBmaWxsPSIjQUREMUIyIiByeD0iMTEiIHJ5PSIxMSIgc3R5bGU9InN0cm9rZTojMTgxODE4O3N0cm9rZS13aWR0aDoxOyIvPjxwYXRoIGQ9Ik02NjcuNzM1LDE2Ni4yNSBMNjY3LjczNSwxNjggTDY3Mi42NzI1LDE2OCBMNjcyLjY3MjUsMTY2LjI1IEw2NjcuNzM1LDE2Ni4yNSBaIE02NjguNDIyNSwxNjYuOTM3NSBRNjY4LjQyMjUsMTY2LjkzNzUgNjY4LjQyMjUsMTU3Ljc1IEw2NjYuNjcyNSwxNTcuNzUgUTY2Ni42NzI1LDE1Ny43NSA2NjYuNjcyNSwxNjYuOTM3NSBMNjY4LjQyMjUsMTY2LjkzNzUgWiBNNjcxLjk4NSwxNjYuOTM3NSBMNjczLjczNSwxNjYuOTM3NSBRNjczLjczNSwxNjYuOTM3NSA2NzMuNzM1LDE2NC4xMjUgTDY3MS45ODUsMTY0LjEyNSBRNjcxLjk4NSwxNjQuMTI1IDY3MS45ODUsMTY2LjkzNzUgWiBNNjcxLjk4NSwxNTcuNzUgUTY3MS45ODUsMTU3Ljc1IDY3MS45ODUsMTYwLjU2MjUgTDY3My43MzUsMTYwLjU2MjUgUTY3My43MzUsMTYwLjU2MjUgNjczLjczNSwxNTcuNzUgTDY3MS45ODUsMTU3Ljc1IFogTTY2Ny43MzUsMTU4LjQzNzUgTDY3Mi42NzI1LDE1OC40Mzc1IEw2NzIuNjcyNSwxNTYuNjg3NSBMNjY3LjczNSwxNTYuNjg3NSBMNjY3LjczNSwxNTguNDM3NSBaICIgZmlsbD0iIzAwMDAwMCIvPjx0ZXh0IGZpbGw9IiMwMDAwMDAiIGZvbnQtZmFtaWx5PSJzYW5zLXNlcmlmIiBmb250LXNpemU9IjE0IiBsZW5ndGhBZGp1c3Q9InNwYWNpbmciIHRleHRMZW5ndGg9IjExOSIgeD0iNjg0LjExIiB5PSIxNjcuNzQyMiI+QUlSZWNpcGVBc3Npc3RhbnQ8L3RleHQ+PGxpbmUgc3R5bGU9InN0cm9rZTojMTgxODE4O3N0cm9rZS13aWR0aDowLjU7IiB4MT0iNjU2LjExIiB4Mj0iODA1LjExIiB5MT0iMTc4IiB5Mj0iMTc4Ii8+PGxpbmUgc3R5bGU9InN0cm9rZTojMTgxODE4O3N0cm9rZS13aWR0aDowLjU7IiB4MT0iNjU2LjExIiB4Mj0iODA1LjExIiB5MT0iMTg2IiB5Mj0iMTg2Ii8+PC9nPjwhLS1jbGFzcyBEYXRhYmFzZU1hbmFnZXItLT48ZyBjbGFzcz0iZW50aXR5IiBkYXRhLWVudGl0eT0iRGF0YWJhc2VNYW5hZ2VyIiBkYXRhLXNvdXJjZS1saW5lPSI0NiIgZGF0YS11aWQ9ImVudDAwMTIiIGlkPSJlbnRpdHlfRGF0YWJhc2VNYW5hZ2VyIj48cmVjdCBmaWxsPSIjRjFGMUYxIiBoZWlnaHQ9IjQ4IiByeD0iMi41IiByeT0iMi41IiBzdHlsZT0ic3Ryb2tlOiMxODE4MTg7c3Ryb2tlLXdpZHRoOjAuNTsiIHdpZHRoPSIxMzciIHg9Ijg0MS4xMSIgeT0iMTQ2Ii8+PGVsbGlwc2UgY3g9Ijg1Ni4xMSIgY3k9IjE2MiIgZmlsbD0iI0FERDFCMiIgcng9IjExIiByeT0iMTEiIHN0eWxlPSJzdHJva2U6IzE4MTgxODtzdHJva2Utd2lkdGg6MTsiLz48cGF0aCBkPSJNODUzLjczNSwxNjYuMjUgTDg1My43MzUsMTY4IEw4NTguNjcyNSwxNjggTDg1OC42NzI1LDE2Ni4yNSBMODUzLjczNSwxNjYuMjUgWiBNODU0LjQyMjUsMTY2LjkzNzUgUTg1NC40MjI1LDE2Ni45Mzc1IDg1NC40MjI1LDE1Ny43NSBMODUyLjY3MjUsMTU3Ljc1IFE4NTIuNjcyNSwxNTcuNzUgODUyLjY3MjUsMTY2LjkzNzUgTDg1NC40MjI1LDE2Ni45Mzc1IFogTTg1Ny45ODUsMTY2LjkzNzUgTDg1OS43MzUsMTY2LjkzNzUgUTg1OS43MzUsMTY2LjkzNzUgODU5LjczNSwxNjQuMTI1IEw4NTcuOTg1LDE2NC4xMjUgUTg1Ny45ODUsMTY0LjEyNSA4NTcuOTg1LDE2Ni45Mzc1IFogTTg1Ny45ODUsMTU3Ljc1IFE4NTcuOTg1LDE1Ny43NSA4NTcuOTg1LDE2MC41NjI1IEw4NTkuNzM1LDE2MC41NjI1IFE4NTkuNzM1LDE2MC41NjI1IDg1OS43MzUsMTU3Ljc1IEw4NTcuOTg1LDE1Ny43NSBaIE04NTMuNzM1LDE1OC40Mzc1IEw4NTguNjcyNSwxNTguNDM3NSBMODU4LjY3MjUsMTU2LjY4NzUgTDg1My43MzUsMTU2LjY4NzUgTDg1My43MzUsMTU4LjQzNzUgWiAiIGZpbGw9IiMwMDAwMDAiLz48dGV4dCBmaWxsPSIjMDAwMDAwIiBmb250LWZhbWlseT0ic2Fucy1zZXJpZiIgZm9udC1zaXplPSIxNCIgbGVuZ3RoQWRqdXN0PSJzcGFjaW5nIiB0ZXh0TGVuZ3RoPSIxMDUiIHg9Ijg3MC4xMSIgeT0iMTY3Ljc0MjIiPkRhdGFiYXNlTWFuYWdlcjwvdGV4dD48bGluZSBzdHlsZT0ic3Ryb2tlOiMxODE4MTg7c3Ryb2tlLXdpZHRoOjAuNTsiIHgxPSI4NDIuMTEiIHgyPSI5NzcuMTEiIHkxPSIxNzgiIHkyPSIxNzgiLz48bGluZSBzdHlsZT0ic3Ryb2tlOiMxODE4MTg7c3Ryb2tlLXdpZHRoOjAuNTsiIHgxPSI4NDIuMTEiIHgyPSI5NzcuMTEiIHkxPSIxODYiIHkyPSIxODYiLz48L2c+PCEtLWNsYXNzIFJlcG9ydEdlbmVyYXRvci0tPjxnIGNsYXNzPSJlbnRpdHkiIGRhdGEtZW50aXR5PSJSZXBvcnRHZW5lcmF0b3IiIGRhdGEtc291cmNlLWxpbmU9IjQ5IiBkYXRhLXVpZD0iZW50MDAxMyIgaWQ9ImVudGl0eV9SZXBvcnRHZW5lcmF0b3IiPjxyZWN0IGZpbGw9IiNGMUYxRjEiIGhlaWdodD0iNDgiIHJ4PSIyLjUiIHJ5PSIyLjUiIHN0eWxlPSJzdHJva2U6IzE4MTgxODtzdHJva2Utd2lkdGg6MC41OyIgd2lkdGg9IjEzNyIgeD0iMTAxMy4xMSIgeT0iMTQ2Ii8+PGVsbGlwc2UgY3g9IjEwMjguMTEiIGN5PSIxNjIiIGZpbGw9IiNBREQxQjIiIHJ4PSIxMSIgcnk9IjExIiBzdHlsZT0ic3Ryb2tlOiMxODE4MTg7c3Ryb2tlLXdpZHRoOjE7Ii8+PHBhdGggZD0iTTEwMjUuNzM1LDE2Ni4yNSBMMTAyNS43MzUsMTY4IEwxMDMwLjY3MjUsMTY4IEwxMDMwLjY3MjUsMTY2LjI1IEwxMDI1LjczNSwxNjYuMjUgWiBNMTAyNi40MjI1LDE2Ni45Mzc1IFExMDI2LjQyMjUsMTY2LjkzNzUgMTAyNi40MjI1LDE1Ny43NSBMMTAyNC42NzI1LDE1Ny43NSBRMTAyNC42NzI1LDE1Ny43NSAxMDI0LjY3MjUsMTY2LjkzNzUgTDEwMjYuNDIyNSwxNjYuOTM3NSBaIE0xMDI5Ljk4NSwxNjYuOTM3NSBMMTAzMS43MzUsMTY2LjkzNzUgUTEwMzEuNzM1LDE2Ni45Mzc1IDEwMzEuNzM1LDE2NC4xMjUgTDEwMjkuOTg1LDE2NC4xMjUgUTEwMjkuOTg1LDE2NC4xMjUgMTAyOS45ODUsMTY2LjkzNzUgWiBNMTAyOS45ODUsMTU3Ljc1IFExMDI5Ljk4NSwxNTcuNzUgMTAyOS45ODUsMTYwLjU2MjUgTDEwMzEuNzM1LDE2MC41NjI1IFExMDMxLjczNSwxNjAuNTYyNSAxMDMxLjczNSwxNTcuNzUgTDEwMjkuOTg1LDE1Ny43NSBaIE0xMDI1LjczNSwxNTguNDM3NSBMMTAzMC42NzI1LDE1OC40Mzc1IEwxMDMwLjY3MjUsMTU2LjY4NzUgTDEwMjUuNzM1LDE1Ni42ODc1IEwxMDI1LjczNSwxNTguNDM3NSBaICIgZmlsbD0iIzAwMDAwMCIvPjx0ZXh0IGZpbGw9IiMwMDAwMDAiIGZvbnQtZmFtaWx5PSJzYW5zLXNlcmlmIiBmb250LXNpemU9IjE0IiBsZW5ndGhBZGp1c3Q9InNwYWNpbmciIHRleHRMZW5ndGg9IjEwNSIgeD0iMTA0Mi4xMSIgeT0iMTY3Ljc0MjIiPlJlcG9ydEdlbmVyYXRvcjwvdGV4dD48bGluZSBzdHlsZT0ic3Ryb2tlOiMxODE4MTg7c3Ryb2tlLXdpZHRoOjAuNTsiIHgxPSIxMDE0LjExIiB4Mj0iMTE0OS4xMSIgeTE9IjE3OCIgeTI9IjE3OCIvPjxsaW5lIHN0eWxlPSJzdHJva2U6IzE4MTgxODtzdHJva2Utd2lkdGg6MC41OyIgeDE9IjEwMTQuMTEiIHgyPSIxMTQ5LjExIiB5MT0iMTg2IiB5Mj0iMTg2Ii8+PC9nPjwhLS1jbGFzcyBRdWFsaXR5Q29udHJvbFRlYW0tLT48ZyBjbGFzcz0iZW50aXR5IiBkYXRhLWVudGl0eT0iUXVhbGl0eUNvbnRyb2xUZWFtIiBkYXRhLXNvdXJjZS1saW5lPSI1MiIgZGF0YS11aWQ9ImVudDAwMTQiIGlkPSJlbnRpdHlfUXVhbGl0eUNvbnRyb2xUZWFtIj48cmVjdCBmaWxsPSIjRjFGMUYxIiBoZWlnaHQ9IjQ4IiByeD0iMi41IiByeT0iMi41IiBzdHlsZT0ic3Ryb2tlOiMxODE4MTg7c3Ryb2tlLXdpZHRoOjAuNTsiIHdpZHRoPSIxNTgiIHg9IjExODUuNjEiIHk9IjE0NiIvPjxlbGxpcHNlIGN4PSIxMjAwLjYxIiBjeT0iMTYyIiBmaWxsPSIjQUREMUIyIiByeD0iMTEiIHJ5PSIxMSIgc3R5bGU9InN0cm9rZTojMTgxODE4O3N0cm9rZS13aWR0aDoxOyIvPjxwYXRoIGQ9Ik0xMTk4LjIzNSwxNjYuMjUgTDExOTguMjM1LDE2OCBMMTIwMy4xNzI1LDE2OCBMMTIwMy4xNzI1LDE2Ni4yNSBMMTE5OC4yMzUsMTY2LjI1IFogTTExOTguOTIyNSwxNjYuOTM3NSBRMTE5OC45MjI1LDE2Ni45Mzc1IDExOTguOTIyNSwxNTcuNzUgTDExOTcuMTcyNSwxNTcuNzUgUTExOTcuMTcyNSwxNTcuNzUgMTE5Ny4xNzI1LDE2Ni45Mzc1IEwxMTk4LjkyMjUsMTY2LjkzNzUgWiBNMTIwMi40ODUsMTY2LjkzNzUgTDEyMDQuMjM1LDE2Ni45Mzc1IFExMjA0LjIzNSwxNjYuOTM3NSAxMjA0LjIzNSwxNjQuMTI1IEwxMjAyLjQ4NSwxNjQuMTI1IFExMjAyLjQ4NSwxNjQuMTI1IDEyMDIuNDg1LDE2Ni45Mzc1IFogTTEyMDIuNDg1LDE1Ny43NSBRMTIwMi40ODUsMTU3Ljc1IDEyMDIuNDg1LDE2MC41NjI1IEwxMjA0LjIzNSwxNjAuNTYyNSBRMTIwNC4yMzUsMTYwLjU2MjUgMTIwNC4yMzUsMTU3Ljc1IEwxMjAyLjQ4NSwxNTcuNzUgWiBNMTE5OC4yMzUsMTU4LjQzNzUgTDEyMDMuMTcyNSwxNTguNDM3NSBMMTIwMy4xNzI1LDE1Ni42ODc1IEwxMTk4LjIzNSwxNTYuNjg3NSBMMTE5OC4yMzUsMTU4LjQzNzUgWiAiIGZpbGw9IiMwMDAwMDAiLz48dGV4dCBmaWxsPSIjMDAwMDAwIiBmb250LWZhbWlseT0ic2Fucy1zZXJpZiIgZm9udC1zaXplPSIxNCIgbGVuZ3RoQWRqdXN0PSJzcGFjaW5nIiB0ZXh0TGVuZ3RoPSIxMjYiIHg9IjEyMTQuNjEiIHk9IjE2Ny43NDIyIj5RdWFsaXR5Q29udHJvbFRlYW08L3RleHQ+PGxpbmUgc3R5bGU9InN0cm9rZTojMTgxODE4O3N0cm9rZS13aWR0aDowLjU7IiB4MT0iMTE4Ni42MSIgeDI9IjEzNDIuNjEiIHkxPSIxNzgiIHkyPSIxNzgiLz48bGluZSBzdHlsZT0ic3Ryb2tlOiMxODE4MTg7c3Ryb2tlLXdpZHRoOjAuNTsiIHgxPSIxMTg2LjYxIiB4Mj0iMTM0Mi42MSIgeTE9IjE4NiIgeTI9IjE4NiIvPjwvZz48IS0tY2xhc3MgRW5kVXNlci0tPjxnIGNsYXNzPSJlbnRpdHkiIGRhdGEtZW50aXR5PSJFbmRVc2VyIiBkYXRhLXNvdXJjZS1saW5lPSI1NSIgZGF0YS11aWQ9ImVudDAwMTUiIGlkPSJlbnRpdHlfRW5kVXNlciI+PHJlY3QgZmlsbD0iI0YxRjFGMSIgaGVpZ2h0PSI0OCIgcng9IjIuNSIgcnk9IjIuNSIgc3R5bGU9InN0cm9rZTojMTgxODE4O3N0cm9rZS13aWR0aDowLjU7IiB3aWR0aD0iODEiIHg9IjEzNzkuMTEiIHk9IjE0NiIvPjxlbGxpcHNlIGN4PSIxMzk0LjExIiBjeT0iMTYyIiBmaWxsPSIjQUREMUIyIiByeD0iMTEiIHJ5PSIxMSIgc3R5bGU9InN0cm9rZTojMTgxODE4O3N0cm9rZS13aWR0aDoxOyIvPjxwYXRoIGQ9Ik0xMzkxLjczNSwxNjYuMjUgTDEzOTEuNzM1LDE2OCBMMTM5Ni42NzI1LDE2OCBMMTM5Ni42NzI1LDE2Ni4yNSBMMTM5MS43MzUsMTY2LjI1IFogTTEzOTIuNDIyNSwxNjYuOTM3NSBRMTM5Mi40MjI1LDE2Ni45Mzc1IDEzOTIuNDIyNSwxNTcuNzUgTDEzOTAuNjcyNSwxNTcuNzUgUTEzOTAuNjcyNSwxNTcuNzUgMTM5MC42NzI1LDE2Ni45Mzc1IEwxMzkyLjQyMjUsMTY2LjkzNzUgWiBNMTM5NS45ODUsMTY2LjkzNzUgTDEzOTcuNzM1LDE2Ni45Mzc1IFExMzk3LjczNSwxNjYuOTM3NSAxMzk3LjczNSwxNjQuMTI1IEwxMzk1Ljk4NSwxNjQuMTI1IFExMzk1Ljk4NSwxNjQuMTI1IDEzOTUuOTg1LDE2Ni45Mzc1IFogTTEzOTUuOTg1LDE1Ny43NSBRMTM5NS45ODUsMTU3Ljc1IDEzOTUuOTg1LDE2MC41NjI1IEwxMzk3LjczNSwxNjAuNTYyNSBRMTM5Ny43MzUsMTYwLjU2MjUgMTM5Ny43MzUsMTU3Ljc1IEwxMzk1Ljk4NSwxNTcuNzUgWiBNMTM5MS43MzUsMTU4LjQzNzUgTDEzOTYuNjcyNSwxNTguNDM3NSBMMTM5Ni42NzI1LDE1Ni42ODc1IEwxMzkxLjczNSwxNTYuNjg3NSBMMTM5MS43MzUsMTU4LjQzNzUgWiAiIGZpbGw9IiMwMDAwMDAiLz48dGV4dCBmaWxsPSIjMDAwMDAwIiBmb250LWZhbWlseT0ic2Fucy1zZXJpZiIgZm9udC1zaXplPSIxNCIgbGVuZ3RoQWRqdXN0PSJzcGFjaW5nIiB0ZXh0TGVuZ3RoPSI0OSIgeD0iMTQwOC4xMSIgeT0iMTY3Ljc0MjIiPkVuZFVzZXI8L3RleHQ+PGxpbmUgc3R5bGU9InN0cm9rZTojMTgxODE4O3N0cm9rZS13aWR0aDowLjU7IiB4MT0iMTM4MC4xMSIgeDI9IjE0NTkuMTEiIHkxPSIxNzgiIHkyPSIxNzgiLz48bGluZSBzdHlsZT0ic3Ryb2tlOiMxODE4MTg7c3Ryb2tlLXdpZHRoOjAuNTsiIHgxPSIxMzgwLjExIiB4Mj0iMTQ1OS4xMSIgeTE9IjE4NiIgeTI9IjE4NiIvPjwvZz48IS0tY2xhc3MgU2VhcmNoRW5naW5lLS0+PGcgY2xhc3M9ImVudGl0eSIgZGF0YS1lbnRpdHk9IlNlYXJjaEVuZ2luZSIgZGF0YS1zb3VyY2UtbGluZT0iNTgiIGRhdGEtdWlkPSJlbnQwMDE2IiBpZD0iZW50aXR5X1NlYXJjaEVuZ2luZSI+PHJlY3QgZmlsbD0iI0YxRjFGMSIgaGVpZ2h0PSI0OCIgcng9IjIuNSIgcnk9IjIuNSIgc3R5bGU9InN0cm9rZTojMTgxODE4O3N0cm9rZS13aWR0aDowLjU7IiB3aWR0aD0iMTE2IiB4PSIzMjQuNjEiIHk9IjMxNyIvPjxlbGxpcHNlIGN4PSIzMzkuNjEiIGN5PSIzMzMiIGZpbGw9IiNBREQxQjIiIHJ4PSIxMSIgcnk9IjExIiBzdHlsZT0ic3Ryb2tlOiMxODE4MTg7c3Ryb2tlLXdpZHRoOjE7Ii8+PHBhdGggZD0iTTMzNy4yMzUsMzM3LjI1IEwzMzcuMjM1LDMzOSBMMzQyLjE3MjUsMzM5IEwzNDIuMTcyNSwzMzcuMjUgTDMzNy4yMzUsMzM3LjI1IFogTTMzNy45MjI1LDMzNy45Mzc1IFEzMzcuOTIyNSwzMzcuOTM3NSAzMzcuOTIyNSwzMjguNzUgTDMzNi4xNzI1LDMyOC43NSBRMzM2LjE3MjUsMzI4Ljc1IDMzNi4xNzI1LDMzNy45Mzc1IEwzMzcuOTIyNSwzMzcuOTM3NSBaIE0zNDEuNDg1LDMzNy45Mzc1IEwzNDMuMjM1LDMzNy45Mzc1IFEzNDMuMjM1LDMzNy45Mzc1IDM0My4yMzUsMzM1LjEyNSBMMzQxLjQ4NSwzMzUuMTI1IFEzNDEuNDg1LDMzNS4xMjUgMzQxLjQ4NSwzMzcuOTM3NSBaIE0zNDEuNDg1LDMyOC43NSBRMzQxLjQ4NSwzMjguNzUgMzQxLjQ4NSwzMzEuNTYyNSBMMzQzLjIzNSwzMzEuNTYyNSBRMzQzLjIzNSwzMzEuNTYyNSAzNDMuMjM1LDMyOC43NSBMMzQxLjQ4NSwzMjguNzUgWiBNMzM3LjIzNSwzMjkuNDM3NSBMMzQyLjE3MjUsMzI5LjQzNzUgTDM0Mi4xNzI1LDMyNy42ODc1IEwzMzcuMjM1LDMyNy42ODc1IEwzMzcuMjM1LDMyOS40Mzc1IFogIiBmaWxsPSIjMDAwMDAwIi8+PHRleHQgZmlsbD0iIzAwMDAwMCIgZm9udC1mYW1pbHk9InNhbnMtc2VyaWYiIGZvbnQtc2l6ZT0iMTQiIGxlbmd0aEFkanVzdD0ic3BhY2luZyIgdGV4dExlbmd0aD0iODQiIHg9IjM1My42MSIgeT0iMzM4Ljc0MjIiPlNlYXJjaEVuZ2luZTwvdGV4dD48bGluZSBzdHlsZT0ic3Ryb2tlOiMxODE4MTg7c3Ryb2tlLXdpZHRoOjAuNTsiIHgxPSIzMjUuNjEiIHgyPSI0MzkuNjEiIHkxPSIzNDkiIHkyPSIzNDkiLz48bGluZSBzdHlsZT0ic3Ryb2tlOiMxODE4MTg7c3Ryb2tlLXdpZHRoOjAuNTsiIHgxPSIzMjUuNjEiIHgyPSI0MzkuNjEiIHkxPSIzNTciIHkyPSIzNTciLz48L2c+PCEtLWNsYXNzIFJlY2lwaWVudC0tPjxnIGNsYXNzPSJlbnRpdHkiIGRhdGEtZW50aXR5PSJSZWNpcGllbnQiIGRhdGEtc291cmNlLWxpbmU9IjYxIiBkYXRhLXVpZD0iZW50MDAxNyIgaWQ9ImVudGl0eV9SZWNpcGllbnQiPjxyZWN0IGZpbGw9IiNGMUYxRjEiIGhlaWdodD0iNDgiIHJ4PSIyLjUiIHJ5PSIyLjUiIHN0eWxlPSJzdHJva2U6IzE4MTgxODtzdHJva2Utd2lkdGg6MC41OyIgd2lkdGg9Ijk1IiB4PSIxNDk1LjExIiB5PSIxNDYiLz48ZWxsaXBzZSBjeD0iMTUxMC4xMSIgY3k9IjE2MiIgZmlsbD0iI0FERDFCMiIgcng9IjExIiByeT0iMTEiIHN0eWxlPSJzdHJva2U6IzE4MTgxODtzdHJva2Utd2lkdGg6MTsiLz48cGF0aCBkPSJNMTUwNy43MzUsMTY2LjI1IEwxNTA3LjczNSwxNjggTDE1MTIuNjcyNSwxNjggTDE1MTIuNjcyNSwxNjYuMjUgTDE1MDcuNzM1LDE2Ni4yNSBaIE0xNTA4LjQyMjUsMTY2LjkzNzUgUTE1MDguNDIyNSwxNjYuOTM3NSAxNTA4LjQyMjUsMTU3Ljc1IEwxNTA2LjY3MjUsMTU3Ljc1IFExNTA2LjY3MjUsMTU3Ljc1IDE1MDYuNjcyNSwxNjYuOTM3NSBMMTUwOC40MjI1LDE2Ni45Mzc1IFogTTE1MTEuOTg1LDE2Ni45Mzc1IEwxNTEzLjczNSwxNjYuOTM3NSBRMTUxMy43MzUsMTY2LjkzNzUgMTUxMy43MzUsMTY0LjEyNSBMMTUxMS45ODUsMTY0LjEyNSBRMTUxMS45ODUsMTY0LjEyNSAxNTExLjk4NSwxNjYuOTM3NSBaIE0xNTExLjk4NSwxNTcuNzUgUTE1MTEuOTg1LDE1Ny43NSAxNTExLjk4NSwxNjAuNTYyNSBMMTUxMy43MzUsMTYwLjU2MjUgUTE1MTMuNzM1LDE2MC41NjI1IDE1MTMuNzM1LDE1Ny43NSBMMTUxMS45ODUsMTU3Ljc1IFogTTE1MDcuNzM1LDE1OC40Mzc1IEwxNTEyLjY3MjUsMTU4LjQzNzUgTDE1MTIuNjcyNSwxNTYuNjg3NSBMMTUwNy43MzUsMTU2LjY4NzUgTDE1MDcuNzM1LDE1OC40Mzc1IFogIiBmaWxsPSIjMDAwMDAwIi8+PHRleHQgZmlsbD0iIzAwMDAwMCIgZm9udC1mYW1pbHk9InNhbnMtc2VyaWYiIGZvbnQtc2l6ZT0iMTQiIGxlbmd0aEFkanVzdD0ic3BhY2luZyIgdGV4dExlbmd0aD0iNjMiIHg9IjE1MjQuMTEiIHk9IjE2Ny43NDIyIj5SZWNpcGllbnQ8L3RleHQ+PGxpbmUgc3R5bGU9InN0cm9rZTojMTgxODE4O3N0cm9rZS13aWR0aDowLjU7IiB4MT0iMTQ5Ni4xMSIgeDI9IjE1ODkuMTEiIHkxPSIxNzgiIHkyPSIxNzgiLz48bGluZSBzdHlsZT0ic3Ryb2tlOiMxODE4MTg7c3Ryb2tlLXdpZHRoOjAuNTsiIHgxPSIxNDk2LjExIiB4Mj0iMTU4OS4xMSIgeTE9IjE4NiIgeTI9IjE4NiIvPjwvZz48IS0tY2xhc3MgUmVjaXBlQ29udHJpYnV0b3ItLT48ZyBjbGFzcz0iZW50aXR5IiBkYXRhLWVudGl0eT0iUmVjaXBlQ29udHJpYnV0b3IiIGRhdGEtc291cmNlLWxpbmU9IjY0IiBkYXRhLXVpZD0iZW50MDAxOCIgaWQ9ImVudGl0eV9SZWNpcGVDb250cmlidXRvciI+PHJlY3QgZmlsbD0iI0YxRjFGMSIgaGVpZ2h0PSI0OCIgcng9IjIuNSIgcnk9IjIuNSIgc3R5bGU9InN0cm9rZTojMTgxODE4O3N0cm9rZS13aWR0aDowLjU7IiB3aWR0aD0iMTUxIiB4PSIxNjI1LjExIiB5PSIxNDYiLz48ZWxsaXBzZSBjeD0iMTY0MC4xMSIgY3k9IjE2MiIgZmlsbD0iI0FERDFCMiIgcng9IjExIiByeT0iMTEiIHN0eWxlPSJzdHJva2U6IzE4MTgxODtzdHJva2Utd2lkdGg6MTsiLz48cGF0aCBkPSJNMTYzNy43MzUsMTY2LjI1IEwxNjM3LjczNSwxNjggTDE2NDIuNjcyNSwxNjggTDE2NDIuNjcyNSwxNjYuMjUgTDE2MzcuNzM1LDE2Ni4yNSBaIE0xNjM4LjQyMjUsMTY2LjkzNzUgUTE2MzguNDIyNSwxNjYuOTM3NSAxNjM4LjQyMjUsMTU3Ljc1IEwxNjM2LjY3MjUsMTU3Ljc1IFExNjM2LjY3MjUsMTU3Ljc1IDE2MzYuNjcyNSwxNjYuOTM3NSBMMTYzOC40MjI1LDE2Ni45Mzc1IFogTTE2NDEuOTg1LDE2Ni45Mzc1IEwxNjQzLjczNSwxNjYuOTM3NSBRMTY0My43MzUsMTY2LjkzNzUgMTY0My43MzUsMTY0LjEyNSBMMTY0MS45ODUsMTY0LjEyNSBRMTY0MS45ODUsMTY0LjEyNSAxNjQxLjk4NSwxNjYuOTM3NSBaIE0xNjQxLjk4NSwxNTcuNzUgUTE2NDEuOTg1LDE1Ny43NSAxNjQxLjk4NSwxNjAuNTYyNSBMMTY0My43MzUsMTYwLjU2MjUgUTE2NDMuNzM1LDE2MC41NjI1IDE2NDMuNzM1LDE1Ny43NSBMMTY0MS45ODUsMTU3Ljc1IFogTTE2MzcuNzM1LDE1OC40Mzc1IEwxNjQyLjY3MjUsMTU4LjQzNzUgTDE2NDIuNjcyNSwxNTYuNjg3NSBMMTYzNy43MzUsMTU2LjY4NzUgTDE2MzcuNzM1LDE1OC40Mzc1IFogIiBmaWxsPSIjMDAwMDAwIi8+PHRleHQgZmlsbD0iIzAwMDAwMCIgZm9udC1mYW1pbHk9InNhbnMtc2VyaWYiIGZvbnQtc2l6ZT0iMTQiIGxlbmd0aEFkanVzdD0ic3BhY2luZyIgdGV4dExlbmd0aD0iMTE5IiB4PSIxNjU0LjExIiB5PSIxNjcuNzQyMiI+UmVjaXBlQ29udHJpYnV0b3I8L3RleHQ+PGxpbmUgc3R5bGU9InN0cm9rZTojMTgxODE4O3N0cm9rZS13aWR0aDowLjU7IiB4MT0iMTYyNi4xMSIgeDI9IjE3NzUuMTEiIHkxPSIxNzgiIHkyPSIxNzgiLz48bGluZSBzdHlsZT0ic3Ryb2tlOiMxODE4MTg7c3Ryb2tlLXdpZHRoOjAuNTsiIHgxPSIxNjI2LjExIiB4Mj0iMTc3NS4xMSIgeTE9IjE4NiIgeTI9IjE4NiIvPjwvZz48IS0tcmV2ZXJzZSBsaW5rIFVzZXIgdG8gUmVjaXBlQ3JlYXRvci0tPjxnIGNsYXNzPSJsaW5rIiBkYXRhLWVudGl0eS0xPSJVc2VyIiBkYXRhLWVudGl0eS0yPSJSZWNpcGVDcmVhdG9yIiBkYXRhLXNvdXJjZS1saW5lPSI2OCIgZGF0YS11aWQ9ImxuazE5IiBpZD0ibGlua19Vc2VyX1JlY2lwZUNyZWF0b3IiPjxwYXRoIGNvZGVMaW5lPSI2OCIgZD0iTTgyMi40MjMsNTEuMTI5NSBDNjczLjE5Myw1OC42Nzk1IDM0My42LDc4Ljc1IDIzMS42MSwxMTUgQzIwOS45NCwxMjIuMDEgMTg3LjgsMTM0LjYxIDE3MC41NiwxNDUuODciIGZpbGw9Im5vbmUiIGlkPSJVc2VyLWJhY2t0by1SZWNpcGVDcmVhdG9yIiBzdHlsZT0ic3Ryb2tlOiMxODE4MTg7c3Ryb2tlLXdpZHRoOjE7Ii8+PHBvbHlnb24gZmlsbD0ibm9uZSIgcG9pbnRzPSI4NDAuNCw1MC4yMiw4MjIuMTE5OCw0NS4xMzcyLDgyMi43MjYyLDU3LjEyMTgsODQwLjQsNTAuMjIiIHN0eWxlPSJzdHJva2U6IzE4MTgxODtzdHJva2Utd2lkdGg6MTsiLz48L2c+PCEtLXJldmVyc2UgbGluayBVc2VyIHRvIFJlY2lwZU93bmVyLS0+PGcgY2xhc3M9ImxpbmsiIGRhdGEtZW50aXR5LTE9IlVzZXIiIGRhdGEtZW50aXR5LTI9IlJlY2lwZU93bmVyIiBkYXRhLXNvdXJjZS1saW5lPSI2OSIgZGF0YS11aWQ9ImxuazIwIiBpZD0ibGlua19Vc2VyX1JlY2lwZU93bmVyIj48cGF0aCBjb2RlTGluZT0iNjkiIGQ9Ik04MjIuNTMyNiw0OS41ODQgQzY3OC45NTI2LDU0Ljk2NCAzNzMuMDUsNzQuMjcgMjkzLjYxLDE0NiBDMjcxLjkyLDE2NS41OCAyNjYuODMsMjAwLjQ4IDI2Ni4wNCwyMjMuNjkiIGZpbGw9Im5vbmUiIGlkPSJVc2VyLWJhY2t0by1SZWNpcGVPd25lciIgc3R5bGU9InN0cm9rZTojMTgxODE4O3N0cm9rZS13aWR0aDoxOyIvPjxwb2x5Z29uIGZpbGw9Im5vbmUiIHBvaW50cz0iODQwLjUyLDQ4LjkxLDgyMi4zMDgsNDMuNTg4Miw4MjIuNzU3Myw1NS41Nzk4LDg0MC41Miw0OC45MSIgc3R5bGU9InN0cm9rZTojMTgxODE4O3N0cm9rZS13aWR0aDoxOyIvPjwvZz48IS0tcmV2ZXJzZSBsaW5rIFVzZXIgdG8gU3lzdGVtT3duZXItLT48ZyBjbGFzcz0ibGluayIgZGF0YS1lbnRpdHktMT0iVXNlciIgZGF0YS1lbnRpdHktMj0iU3lzdGVtT3duZXIiIGRhdGEtc291cmNlLWxpbmU9IjcwIiBkYXRhLXVpZD0ibG5rMjEiIGlkPSJsaW5rX1VzZXJfU3lzdGVtT3duZXIiPjxwYXRoIGNvZGVMaW5lPSI3MCIgZD0iTTgyMi41OTE2LDYyLjQ1NjggQzczMC4xMjE2LDc5LjMwNjggNTc5LjI4LDEwOC42MiA0MzcuNjEsMTQ2IEM0MzIuMDMsMTQ3LjQ3IDQyNi4yNCwxNDkuMTIgNDIwLjQ3LDE1MC44NCIgZmlsbD0ibm9uZSIgaWQ9IlVzZXItYmFja3RvLVN5c3RlbU93bmVyIiBzdHlsZT0ic3Ryb2tlOiMxODE4MTg7c3Ryb2tlLXdpZHRoOjE7Ii8+PHBvbHlnb24gZmlsbD0ibm9uZSIgcG9pbnRzPSI4NDAuMyw1OS4yMyw4MjEuNTE2LDU2LjU1NCw4MjMuNjY3Miw2OC4zNTk2LDg0MC4zLDU5LjIzIiBzdHlsZT0ic3Ryb2tlOiMxODE4MTg7c3Ryb2tlLXdpZHRoOjE7Ii8+PC9nPjwhLS1yZXZlcnNlIGxpbmsgVXNlciB0byBTeXN0ZW1BZG1pbmlzdHJhdG9yLS0+PGcgY2xhc3M9ImxpbmsiIGRhdGEtZW50aXR5LTE9IlVzZXIiIGRhdGEtZW50aXR5LTI9IlN5c3RlbUFkbWluaXN0cmF0b3IiIGRhdGEtc291cmNlLWxpbmU9IjcxIiBkYXRhLXVpZD0ibG5rMjIiIGlkPSJsaW5rX1VzZXJfU3lzdGVtQWRtaW5pc3RyYXRvciI+PHBhdGggY29kZUxpbmU9IjcxIiBkPSJNODIzLjQwNjMsNzUuMjY5MiBDNzU3LjExNjMsOTcuMDA5MiA2NzQuNjEsMTI0LjA3IDYwNy45MiwxNDUuOTQiIGZpbGw9Im5vbmUiIGlkPSJVc2VyLWJhY2t0by1TeXN0ZW1BZG1pbmlzdHJhdG9yIiBzdHlsZT0ic3Ryb2tlOiMxODE4MTg7c3Ryb2tlLXdpZHRoOjE7Ii8+PHBvbHlnb24gZmlsbD0ibm9uZSIgcG9pbnRzPSI4NDAuNTEsNjkuNjYsODIxLjUzNjYsNjkuNTY4LDgyNS4yNzYsODAuOTcwNCw4NDAuNTEsNjkuNjYiIHN0eWxlPSJzdHJva2U6IzE4MTgxODtzdHJva2Utd2lkdGg6MTsiLz48L2c+PCEtLXJldmVyc2UgbGluayBVc2VyIHRvIEVuZFVzZXItLT48ZyBjbGFzcz0ibGluayIgZGF0YS1lbnRpdHktMT0iVXNlciIgZGF0YS1lbnRpdHktMj0iRW5kVXNlciIgZGF0YS1zb3VyY2UtbGluZT0iNzIiIGRhdGEtdWlkPSJsbmsyMyIgaWQ9ImxpbmtfVXNlcl9FbmRVc2VyIj48cGF0aCBjb2RlTGluZT0iNzIiIGQ9Ik05OTYuMzc3NSw2MS42NTAxIEMxMDg1LjgwNzUsNzcuMzkwMSAxMjI4LjMyLDEwNS4yNyAxMzYxLjYxLDE0NiBDMTM2Ny4zMSwxNDcuNzQgMTM3My4yMywxNDkuOCAxMzc5LjAzLDE1MS45NSIgZmlsbD0ibm9uZSIgaWQ9IlVzZXItYmFja3RvLUVuZFVzZXIiIHN0eWxlPSJzdHJva2U6IzE4MTgxODtzdHJva2Utd2lkdGg6MTsiLz48cG9seWdvbiBmaWxsPSJub25lIiBwb2ludHM9Ijk3OC42NSw1OC41Myw5OTUuMzM3NSw2Ny41NTkzLDk5Ny40MTc2LDU1Ljc0MDksOTc4LjY1LDU4LjUzIiBzdHlsZT0ic3Ryb2tlOiMxODE4MTg7c3Ryb2tlLXdpZHRoOjE7Ii8+PC9nPjwhLS1yZXZlcnNlIGxpbmsgVXNlciB0byBSZWNpcGVDb250cmlidXRvci0tPjxnIGNsYXNzPSJsaW5rIiBkYXRhLWVudGl0eS0xPSJVc2VyIiBkYXRhLWVudGl0eS0yPSJSZWNpcGVDb250cmlidXRvciIgZGF0YS1zb3VyY2UtbGluZT0iNzMiIGRhdGEtdWlkPSJsbmsyNCIgaWQ9ImxpbmtfVXNlcl9SZWNpcGVDb250cmlidXRvciI+PHBhdGggY29kZUxpbmU9IjczIiBkPSJNOTk2LjczODQsNTYuNDYxNSBDMTEyMi41Nzg0LDcwLjU0MTUgMTM3OS4wMiwxMDEuNjQgMTYwNy42MSwxNDYgQzE2MTMuMjQsMTQ3LjA5IDE2MTkuMDUsMTQ4LjMxIDE2MjQuODcsMTQ5LjYiIGZpbGw9Im5vbmUiIGlkPSJVc2VyLWJhY2t0by1SZWNpcGVDb250cmlidXRvciIgc3R5bGU9InN0cm9rZTojMTgxODE4O3N0cm9rZS13aWR0aDoxOyIvPjxwb2x5Z29uIGZpbGw9Im5vbmUiIHBvaW50cz0iOTc4Ljg1LDU0LjQ2LDk5Ni4wNzEyLDYyLjQyNDMsOTk3LjQwNTUsNTAuNDk4Nyw5NzguODUsNTQuNDYiIHN0eWxlPSJzdHJva2U6IzE4MTgxODtzdHJva2Utd2lkdGg6MTsiLz48L2c+PCEtLXJldmVyc2UgbGluayBVc2VyIHRvIFJlcG9ydEdlbmVyYXRvci0tPjxnIGNsYXNzPSJsaW5rIiBkYXRhLWVudGl0eS0xPSJVc2VyIiBkYXRhLWVudGl0eS0yPSJSZXBvcnRHZW5lcmF0b3IiIGRhdGEtc291cmNlLWxpbmU9Ijc0IiBkYXRhLXVpZD0ibG5rMjUiIGlkPSJsaW5rX1VzZXJfUmVwb3J0R2VuZXJhdG9yIj48cGF0aCBjb2RlTGluZT0iNzQiIGQ9Ik05NzguMjQzNSw5NS42ODEzIEMxMDA2LjMyMzUsMTE1LjU5MTMgMTAyNS4wMywxMjguODcgMTA0OS4xMywxNDUuOTYiIGZpbGw9Im5vbmUiIGlkPSJVc2VyLWJhY2t0by1SZXBvcnRHZW5lcmF0b3IiIHN0eWxlPSJzdHJva2U6IzE4MTgxODtzdHJva2Utd2lkdGg6MTsiLz48cG9seWdvbiBmaWxsPSJub25lIiBwb2ludHM9Ijk2My41Niw4NS4yNyw5NzQuNzczMSwxMDAuNTc1OCw5ODEuNzEzOSw5MC43ODY4LDk2My41Niw4NS4yNyIgc3R5bGU9InN0cm9rZTojMTgxODE4O3N0cm9rZS13aWR0aDoxOyIvPjwvZz48IS0tcmV2ZXJzZSBsaW5rIFVzZXIgdG8gRGF0YWJhc2VNYW5hZ2VyLS0+PGcgY2xhc3M9ImxpbmsiIGRhdGEtZW50aXR5LTE9IlVzZXIiIGRhdGEtZW50aXR5LTI9IkRhdGFiYXNlTWFuYWdlciIgZGF0YS1zb3VyY2UtbGluZT0iNzUiIGRhdGEtdWlkPSJsbmsyNiIgaWQ9ImxpbmtfVXNlcl9EYXRhYmFzZU1hbmFnZXIiPjxwYXRoIGNvZGVMaW5lPSI3NSIgZD0iTTkwOS42MSwxMDMuMjcgQzkwOS42MSwxMjMuMTEgOTA5LjYxLDEyOC43IDkwOS42MSwxNDUuNzgiIGZpbGw9Im5vbmUiIGlkPSJVc2VyLWJhY2t0by1EYXRhYmFzZU1hbmFnZXIiIHN0eWxlPSJzdHJva2U6IzE4MTgxODtzdHJva2Utd2lkdGg6MTsiLz48cG9seWdvbiBmaWxsPSJub25lIiBwb2ludHM9IjkwOS42MSw4NS4yNyw5MDMuNjEsMTAzLjI3LDkxNS42MSwxMDMuMjcsOTA5LjYxLDg1LjI3IiBzdHlsZT0ic3Ryb2tlOiMxODE4MTg7c3Ryb2tlLXdpZHRoOjE7Ii8+PC9nPjwhLS1yZXZlcnNlIGxpbmsgVXNlciB0byBRdWFsaXR5Q29udHJvbFRlYW0tLT48ZyBjbGFzcz0ibGluayIgZGF0YS1lbnRpdHktMT0iVXNlciIgZGF0YS1lbnRpdHktMj0iUXVhbGl0eUNvbnRyb2xUZWFtIiBkYXRhLXNvdXJjZS1saW5lPSI3NiIgZGF0YS11aWQ9ImxuazI3IiBpZD0ibGlua19Vc2VyX1F1YWxpdHlDb250cm9sVGVhbSI+PHBhdGggY29kZUxpbmU9Ijc2IiBkPSJNOTk1LjkyMjgsNzYuNjYwMSBDMTA1OS4xODI4LDk4LjQwMDEgMTEzNS4wNywxMjQuNDggMTE5Ny42LDE0NS45NyIgZmlsbD0ibm9uZSIgaWQ9IlVzZXItYmFja3RvLVF1YWxpdHlDb250cm9sVGVhbSIgc3R5bGU9InN0cm9rZTojMTgxODE4O3N0cm9rZS13aWR0aDoxOyIvPjxwb2x5Z29uIGZpbGw9Im5vbmUiIHBvaW50cz0iOTc4LjksNzAuODEsOTkzLjk3MjgsODIuMzM0NCw5OTcuODcyOSw3MC45ODU4LDk3OC45LDcwLjgxIiBzdHlsZT0ic3Ryb2tlOiMxODE4MTg7c3Ryb2tlLXdpZHRoOjE7Ii8+PC9nPjwhLS1yZXZlcnNlIGxpbmsgVXNlciB0byBBSVJlY2lwZUFzc2lzdGFudC0tPjxnIGNsYXNzPSJsaW5rIiBkYXRhLWVudGl0eS0xPSJVc2VyIiBkYXRhLWVudGl0eS0yPSJBSVJlY2lwZUFzc2lzdGFudCIgZGF0YS1zb3VyY2UtbGluZT0iNzciIGRhdGEtdWlkPSJsbmsyOCIgaWQ9ImxpbmtfVXNlcl9BSVJlY2lwZUFzc2lzdGFudCI+PHBhdGggY29kZUxpbmU9Ijc3IiBkPSJNODM4LjU4NDksOTUuNDA1NiBDODA5LjM2NDksMTE1LjMxNTYgNzg5LjQ5LDEyOC44NyA3NjQuNDEsMTQ1Ljk2IiBmaWxsPSJub25lIiBpZD0iVXNlci1iYWNrdG8tQUlSZWNpcGVBc3Npc3RhbnQiIHN0eWxlPSJzdHJva2U6IzE4MTgxODtzdHJva2Utd2lkdGg6MTsiLz48cG9seWdvbiBmaWxsPSJub25lIiBwb2ludHM9Ijg1My40Niw4NS4yNyw4MzUuMjA2Myw5MC40NDczLDg0MS45NjM0LDEwMC4zNjQsODUzLjQ2LDg1LjI3IiBzdHlsZT0ic3Ryb2tlOiMxODE4MTg7c3Ryb2tlLXdpZHRoOjE7Ii8+PC9nPjwhLS1yZXZlcnNlIGxpbmsgVXNlciB0byBSZWNpcGllbnQtLT48ZyBjbGFzcz0ibGluayIgZGF0YS1lbnRpdHktMT0iVXNlciIgZGF0YS1lbnRpdHktMj0iUmVjaXBpZW50IiBkYXRhLXNvdXJjZS1saW5lPSI3OCIgZGF0YS11aWQ9ImxuazI5IiBpZD0ibGlua19Vc2VyX1JlY2lwaWVudCI+PHBhdGggY29kZUxpbmU9Ijc4IiBkPSJNOTk2Ljg5NjEsNTcuNTYxNSBDMTEwNC43NDYxLDcxLjI4MTUgMTMwMC42Niw5OS42MiAxNDc3LjYxLDE0NiBDMTQ4My4yOCwxNDcuNDkgMTQ4OS4xNywxNDkuMjUgMTQ5NC45NywxNTEuMTIiIGZpbGw9Im5vbmUiIGlkPSJVc2VyLWJhY2t0by1SZWNpcGllbnQiIHN0eWxlPSJzdHJva2U6IzE4MTgxODtzdHJva2Utd2lkdGg6MTsiLz48cG9seWdvbiBmaWxsPSJub25lIiBwb2ludHM9Ijk3OS4wNCw1NS4yOSw5OTYuMTM4OSw2My41MTM2LDk5Ny42NTMzLDUxLjYwOTUsOTc5LjA0LDU1LjI5IiBzdHlsZT0ic3Ryb2tlOiMxODE4MTg7c3Ryb2tlLXdpZHRoOjE7Ii8+PC9nPjwhLS1saW5rIFJlY2lwZSB0byBGZWVkYmFjay0tPjxnIGNsYXNzPSJsaW5rIiBkYXRhLWVudGl0eS0xPSJSZWNpcGUiIGRhdGEtZW50aXR5LTI9IkZlZWRiYWNrIiBkYXRhLXNvdXJjZS1saW5lPSI4MCIgZGF0YS11aWQ9ImxuazMwIiBpZD0ibGlua19SZWNpcGVfRmVlZGJhY2siPjxwYXRoIGNvZGVMaW5lPSI4MCIgZD0iTTIwOC45Nyw1NjMuMTEgQzE5OC4zNyw1ODIuNzggMTg2LjQ1LDYwNC44OCAxNzYuMjMsNjIzLjgzIiBmaWxsPSJub25lIiBpZD0iUmVjaXBlLUZlZWRiYWNrIiBzdHlsZT0ic3Ryb2tlOiMxODE4MTg7c3Ryb2tlLXdpZHRoOjE7Ii8+PHRleHQgZmlsbD0iIzAwMDAwMCIgZm9udC1mYW1pbHk9InNhbnMtc2VyaWYiIGZvbnQtc2l6ZT0iMTMiIGxlbmd0aEFkanVzdD0ic3BhY2luZyIgdGV4dExlbmd0aD0iNi41IiB4PSIxOTguOTQ4MiIgeT0iNTgzLjIyNzMiPjE8L3RleHQ+PHRleHQgZmlsbD0iIzAwMDAwMCIgZm9udC1mYW1pbHk9InNhbnMtc2VyaWYiIGZvbnQtc2l6ZT0iMTMiIGxlbmd0aEFkanVzdD0ic3BhY2luZyIgdGV4dExlbmd0aD0iNi41IiB4PSIxNzMuODUyMiIgeT0iNjE0LjM5MjQiPio8L3RleHQ+PC9nPjwhLS1saW5rIFJlY2lwZUNyZWF0b3IgdG8gUmVjaXBlLS0+PGcgY2xhc3M9ImxpbmsiIGRhdGEtZW50aXR5LTE9IlJlY2lwZUNyZWF0b3IiIGRhdGEtZW50aXR5LTI9IlJlY2lwZSIgZGF0YS1zb3VyY2UtbGluZT0iODEiIGRhdGEtdWlkPSJsbmszMSIgaWQ9ImxpbmtfUmVjaXBlQ3JlYXRvcl9SZWNpcGUiPjxwYXRoIGNvZGVMaW5lPSI4MSIgZD0iTTExMy41MSwxOTQuMDMgQzc0LjE3LDIzMy4wMiA2LDMxNC4yMiA0MS42MSwzODAgQzYyLjM2LDQxOC4zMyAxMDAuMTIsNDQ3LjAxIDEzNyw0NjcuNCIgZmlsbD0ibm9uZSIgaWQ9IlJlY2lwZUNyZWF0b3ItUmVjaXBlIiBzdHlsZT0ic3Ryb2tlOiMxODE4MTg7c3Ryb2tlLXdpZHRoOjE7Ii8+PHRleHQgZmlsbD0iIzAwMDAwMCIgZm9udC1mYW1pbHk9InNhbnMtc2VyaWYiIGZvbnQtc2l6ZT0iMTMiIGxlbmd0aEFkanVzdD0ic3BhY2luZyIgdGV4dExlbmd0aD0iNi41IiB4PSIxMDAuMzczNCIgeT0iMjE0LjI1OTUiPjE8L3RleHQ+PHRleHQgZmlsbD0iIzAwMDAwMCIgZm9udC1mYW1pbHk9InNhbnMtc2VyaWYiIGZvbnQtc2l6ZT0iMTMiIGxlbmd0aEFkanVzdD0ic3BhY2luZyIgdGV4dExlbmd0aD0iNi41IiB4PSIxMjIuNzYzNSIgeT0iNDYyLjg5NSI+KjwvdGV4dD48L2c+PCEtLWxpbmsgUmVjaXBlT3duZXIgdG8gUmVjaXBlLS0+PGcgY2xhc3M9ImxpbmsiIGRhdGEtZW50aXR5LTE9IlJlY2lwZU93bmVyIiBkYXRhLWVudGl0eS0yPSJSZWNpcGUiIGRhdGEtc291cmNlLWxpbmU9IjgyIiBkYXRhLXVpZD0ibG5rMzIiIGlkPSJsaW5rX1JlY2lwZU93bmVyX1JlY2lwZSI+PHBhdGggY29kZUxpbmU9IjgyIiBkPSJNMjYzLjk4LDI3Mi40NCBDMjU5LjQsMzEzLjQxIDI0OS44MSwzOTguOTkgMjQzLjU1LDQ1NC45MyIgZmlsbD0ibm9uZSIgaWQ9IlJlY2lwZU93bmVyLVJlY2lwZSIgc3R5bGU9InN0cm9rZTojMTgxODE4O3N0cm9rZS13aWR0aDoxOyIvPjx0ZXh0IGZpbGw9IiMwMDAwMDAiIGZvbnQtZmFtaWx5PSJzYW5zLXNlcmlmIiBmb250LXNpemU9IjEzIiBsZW5ndGhBZGp1c3Q9InNwYWNpbmciIHRleHRMZW5ndGg9IjYuNSIgeD0iMjU2LjY2ODYiIHk9IjI5Mi4zODIxIj4xPC90ZXh0Pjx0ZXh0IGZpbGw9IiMwMDAwMDAiIGZvbnQtZmFtaWx5PSJzYW5zLXNlcmlmIiBmb250LXNpemU9IjEzIiBsZW5ndGhBZGp1c3Q9InNwYWNpbmciIHRleHRMZW5ndGg9IjYuNSIgeD0iMjM4LjAxODUiIHk9IjQ0NS4zOTQ2Ij4qPC90ZXh0PjwvZz48IS0tbGluayBSZWNpcGVDcmVhdG9yIHRvIFJlY2lwZUNvbGxlY3Rpb24tLT48ZyBjbGFzcz0ibGluayIgZGF0YS1lbnRpdHktMT0iUmVjaXBlQ3JlYXRvciIgZGF0YS1lbnRpdHktMj0iUmVjaXBlQ29sbGVjdGlvbiIgZGF0YS1zb3VyY2UtbGluZT0iODMiIGRhdGEtdWlkPSJsbmszMyIgaWQ9ImxpbmtfUmVjaXBlQ3JlYXRvcl9SZWNpcGVDb2xsZWN0aW9uIj48cGF0aCBjb2RlTGluZT0iODMiIGQ9Ik0xMzguNjEsMTk0LjE0IEMxMzguNjEsMjIxLjkgMTM4LjYxLDI2OC44MSAxMzguNjEsMzAxLjkyIiBmaWxsPSJub25lIiBpZD0iUmVjaXBlQ3JlYXRvci1SZWNpcGVDb2xsZWN0aW9uIiBzdHlsZT0ic3Ryb2tlOiMxODE4MTg7c3Ryb2tlLXdpZHRoOjE7Ii8+PHRleHQgZmlsbD0iIzAwMDAwMCIgZm9udC1mYW1pbHk9InNhbnMtc2VyaWYiIGZvbnQtc2l6ZT0iMTMiIGxlbmd0aEFkanVzdD0ic3BhY2luZyIgdGV4dExlbmd0aD0iNi41IiB4PSIxMzEuOTA1MyIgeT0iMjE0LjM5NzciPjE8L3RleHQ+PHRleHQgZmlsbD0iIzAwMDAwMCIgZm9udC1mYW1pbHk9InNhbnMtc2VyaWYiIGZvbnQtc2l6ZT0iMTMiIGxlbmd0aEFkanVzdD0ic3BhY2luZyIgdGV4dExlbmd0aD0iNi41IiB4PSIxMzIuMDY4NiIgeT0iMjkyLjMyODYiPio8L3RleHQ+PC9nPjwhLS1saW5rIFJlY2lwZUNvbGxlY3Rpb24gdG8gUmVjaXBlLS0+PGcgY2xhc3M9ImxpbmsiIGRhdGEtZW50aXR5LTE9IlJlY2lwZUNvbGxlY3Rpb24iIGRhdGEtZW50aXR5LTI9IlJlY2lwZSIgZGF0YS1zb3VyY2UtbGluZT0iODQiIGRhdGEtdWlkPSJsbmszNCIgaWQ9ImxpbmtfUmVjaXBlQ29sbGVjdGlvbl9SZWNpcGUiPjxwYXRoIGNvZGVMaW5lPSI4NCIgZD0iTTE2MS4zMiwzODAuMDggQzE3NC41Nyw0MDIuMjkgMTkxLjQ3LDQzMC42NCAyMDYsNDU1IiBmaWxsPSJub25lIiBpZD0iUmVjaXBlQ29sbGVjdGlvbi1SZWNpcGUiIHN0eWxlPSJzdHJva2U6IzE4MTgxODtzdHJva2Utd2lkdGg6MTsiLz48dGV4dCBmaWxsPSIjMDAwMDAwIiBmb250LWZhbWlseT0ic2Fucy1zZXJpZiIgZm9udC1zaXplPSIxMyIgbGVuZ3RoQWRqdXN0PSJzcGFjaW5nIiB0ZXh0TGVuZ3RoPSI2LjUiIHg9IjE1OC43NTA2IiB5PSI0MDAuMjg0NCI+KjwvdGV4dD48dGV4dCBmaWxsPSIjMDAwMDAwIiBmb250LWZhbWlseT0ic2Fucy1zZXJpZiIgZm9udC1zaXplPSIxMyIgbGVuZ3RoQWRqdXN0PSJzcGFjaW5nIiB0ZXh0TGVuZ3RoPSI2LjUiIHg9IjE5NC45NTM0IiB5PSI0NDUuNDc0OCI+KjwvdGV4dD48L2c+PCEtLWxpbmsgUmVjaXBlIHRvIFJlcG9ydC0tPjxnIGNsYXNzPSJsaW5rIiBkYXRhLWVudGl0eS0xPSJSZWNpcGUiIGRhdGEtZW50aXR5LTI9IlJlcG9ydCIgZGF0YS1zb3VyY2UtbGluZT0iODUiIGRhdGEtdWlkPSJsbmszNSIgaWQ9ImxpbmtfUmVjaXBlX1JlcG9ydCI+PHBhdGggY29kZUxpbmU9Ijg1IiBkPSJNMjY2LjU4LDU2My4xMSBDMjc4Ljc0LDU4NS40IDI5Mi42MSw2MTAuODMgMzAzLjc0LDYzMS4yNCIgZmlsbD0ibm9uZSIgaWQ9IlJlY2lwZS1SZXBvcnQiIHN0eWxlPSJzdHJva2U6IzE4MTgxODtzdHJva2Utd2lkdGg6MTsiLz48dGV4dCBmaWxsPSIjMDAwMDAwIiBmb250LWZhbWlseT0ic2Fucy1zZXJpZiIgZm9udC1zaXplPSIxMyIgbGVuZ3RoQWRqdXN0PSJzcGFjaW5nIiB0ZXh0TGVuZ3RoPSI2LjUiIHg9IjI2My45Mzk0IiB5PSI1ODMuMjI3MyI+MTwvdGV4dD48dGV4dCBmaWxsPSIjMDAwMDAwIiBmb250LWZhbWlseT0ic2Fucy1zZXJpZiIgZm9udC1zaXplPSIxMyIgbGVuZ3RoQWRqdXN0PSJzcGFjaW5nIiB0ZXh0TGVuZ3RoPSI2LjUiIHg9IjI5My4yMzc0IiB5PSI2MjEuODk2MiI+KjwvdGV4dD48L2c+PCEtLWxpbmsgU2VhcmNoRW5naW5lIHRvIFJlY2lwZS0tPjxnIGNsYXNzPSJsaW5rIiBkYXRhLWVudGl0eS0xPSJTZWFyY2hFbmdpbmUiIGRhdGEtZW50aXR5LTI9IlJlY2lwZSIgZGF0YS1zb3VyY2UtbGluZT0iODYiIGRhdGEtdWlkPSJsbmszNiIgaWQ9ImxpbmtfU2VhcmNoRW5naW5lX1JlY2lwZSI+PHBhdGggY29kZUxpbmU9Ijg2IiBkPSJNMzYyLjQ1LDM2NS4wOCBDMzQyLjI5LDM4OC4xNSAzMTQuNTI2OCw0MTkuOTQwOCAyODguMTE2OCw0NTAuMTgwOCIgZmlsbD0ibm9uZSIgaWQ9IlNlYXJjaEVuZ2luZS10by1SZWNpcGUiIHN0eWxlPSJzdHJva2U6IzE4MTgxODtzdHJva2Utd2lkdGg6MTtzdHJva2UtZGFzaGFycmF5OjcuMCw3LjA7Ii8+PHBvbHlnb24gZmlsbD0iIzE4MTgxOCIgcG9pbnRzPSIyODQuMTcsNDU0LjcsMjkzLjEwMyw0NTAuNTUyNSwyODcuNDU5LDQ1MC45MzQsMjg3LjA3NzQsNDQ1LjI5MDEsMjg0LjE3LDQ1NC43IiBzdHlsZT0ic3Ryb2tlOiMxODE4MTg7c3Ryb2tlLXdpZHRoOjE7Ii8+PHRleHQgZmlsbD0iIzAwMDAwMCIgZm9udC1mYW1pbHk9InNhbnMtc2VyaWYiIGZvbnQtc2l6ZT0iMTMiIGxlbmd0aEFkanVzdD0ic3BhY2luZyIgdGV4dExlbmd0aD0iNTIiIHg9IjMyMy42MSIgeT0iNDIzLjI4OTEiPnNlYXJjaGVzPC90ZXh0Pjx0ZXh0IGZpbGw9IiMwMDAwMDAiIGZvbnQtZmFtaWx5PSJzYW5zLXNlcmlmIiBmb250LXNpemU9IjEzIiBsZW5ndGhBZGp1c3Q9InNwYWNpbmciIHRleHRMZW5ndGg9IjYuNSIgeD0iMzUwLjU3OTMiIHk9IjM4NS4zMjIzIj4xPC90ZXh0Pjx0ZXh0IGZpbGw9IiMwMDAwMDAiIGZvbnQtZmFtaWx5PSJzYW5zLXNlcmlmIiBmb250LXNpemU9IjEzIiBsZW5ndGhBZGp1c3Q9InNwYWNpbmciIHRleHRMZW5ndGg9IjYuNSIgeD0iMjg0LjMzMDgiIHk9IjQ0NS41MDc3Ij4qPC90ZXh0PjwvZz48IS0tU1JDPVtUTEZCUWlDbTRCcGhBdUdsV0s4QWxQZUcyNGJRMldzWEpWaTFRdGpuSEZLbWFhbTlSVi16YVlxU29NZWtqalpQZFRhVGhIUHFmbUdtSUctZ0dLdjhwUzRPLWVPcnd2MS00cWdOcjNCQmlRR2RndmJpWHVaeFFzbU9JY2pBLWlBQ05PdFdFZzM2d2h3c0o0Y0piNmNteGJXd25SeFlJN3ZKalF0WTc4VWdlMmoxZkI4RGNiZ3BwZ1RDeU9kYTRSNmZlRnVDbkpDajd3Z0w0QXhiYjFBaXF6WXZSem5FZnhHREYyckFUNXBPNzZOODZ3Y2FaUWNjc1ctM0ViSnN4ZllEV0N2aGRmUzUxcEkyTFJ2LTFYb185MlJYcXlMTzUzVjJjcU9td0l2NXB5YXNwb0ZUblhXN1d4R253NlEzMldtVUc0QUJpb1F5OEstWjRvZGJRbS1Tc1NsTS1RNExWcVNHQ1JnTkpKM2FzWUEyaGl6eHNKQTlzUTEtZV9CZjF0OU16UEZxbVc0U1hscXdpeXdHR01Gcmlyb2NGY1JubVF5ZTZoY09ISENKOHBJQ2I2alVjcW9tbkJhOGNUYVQ4UmNiNFBYVHVSbUhSbzRYdVZxTTNtTHJHNzVOSkMtM2ZBaU1QT20wWUpWazVkZ3AtbGc2SVZRZVZUUF9QMmNCenVpYUktQlgtX2pyTDRYQlFlT0NEN3kwXS0tPjwvZz48L3N2Zz4=;" vertex="1" parent="1">
            <mxGeometry x="-470" y="-40" width="1783" height="723" as="geometry" />
          </mxCell>
        </UserObject>
      </root>
    </mxGraphModel>
  </diagram>
</mxfile>
